<?xml version="1.0" encoding="utf-8" standalone="yes"?>
<!DOCTYPE svg PUBLIC "-//W3C//DTD SVG 1.1//EN" "http://www.w3.org/Graphics/SVG/1.1/DTD/svg11.dtd">
<svg width="456" height="377" viewBox="0 0 456 377" style="fill:none;stroke:none;fill-rule:evenodd;clip-rule:evenodd;stroke-linecap:round;stroke-linejoin:round;stroke-miterlimit:1.5;" version="1.1" xmlns="http://www.w3.org/2000/svg" xmlns:xlink="http://www.w3.org/1999/xlink"><style id="fontImports">@import url("https://fonts.googleapis.com/css2?family=Roboto:wght@400;700&amp;display=block");
@import url("https://fonts.googleapis.com/css2?family=Shantell+Sans:wght@300..800&amp;display=block");</style><rect id="" x="0" y="0" width="456" height="376.5" style="fill: #2c2c2c;"></rect><g id="items" style="isolation: isolate"><g id="blend" style="mix-blend-mode:normal"><g id="g-root-3.cu_sy_4hyfvfxchced-fill" data-item-order="999959894" data-item-id="3.cu_sy_4hyfvfxchced" data-item-class="Part Indexed Fill Stroke Arrow" data-item-index="3" data-renderer-id="0" transform="translate(94.5009765625, 151.93896484375)"><g id="3.cu_sy_4hyfvfxchced-fill" stroke="none" fill="#224754"><g><path d="M 88.324 10L 103.3643 15.9263L 90.7118 25.9885L 90.0575 21.6071C 48.3068 30.5364 17 67.6461 17 112.061C 17 124.335 19.3886 136.042 23.723 146.749L 25.0363 149.993L 18.5478 152.62L 17.2345 149.376C 12.568 137.848 10 125.25 10 112.061C 10 64.1262 43.8933 24.1144 89.0216 14.6714L 88.324 10Z"></path></g></g></g><g id="g-root-3.cu_sy_4hyfvfxchced-fill" data-item-order="999959894" data-item-id="3.cu_sy_4hyfvfxchced" data-item-class="Part Indexed Fill Stroke Arrow" data-item-index="3" data-renderer-id="0" transform="translate(94.5009765625, 151.93896484375)"><g id="3.cu_sy_4hyfvfxchced-fill" stroke="none" fill="#224754"><g><path d="M 88.324 10L 103.3643 15.9263L 90.7118 25.9885L 90.0575 21.6071C 48.3068 30.5364 17 67.6461 17 112.061C 17 124.335 19.3886 136.042 23.723 146.749L 25.0363 149.993L 18.5478 152.62L 17.2345 149.376C 12.568 137.848 10 125.25 10 112.061C 10 64.1262 43.8933 24.1144 89.0216 14.6714L 88.324 10Z"></path></g></g></g><g id="g-root-2.cu_sy_4hyfvfxchcec-fill" data-item-order="999959896" data-item-id="2.cu_sy_4hyfvfxchcec" data-item-class="Part Indexed Fill Stroke Arrow" data-item-index="2" data-renderer-id="0" transform="translate(115.658203125, 309.074951171875)"><g id="2.cu_sy_4hyfvfxchcec-fill" stroke="none" fill="#404b29"><g><path d="M 162.746 10L 168.208 14.3779L 166.019 17.1089C 147.79 39.852 119.766 54.4251 88.3397 54.4251C 60.1233 54.4251 34.6466 42.6759 16.543 23.8128L 12.9538 26.8813L 10 10.9876L 25.2412 16.3764L 21.873 19.256C 38.693 36.631 62.2536 47.4251 88.3397 47.4251C 117.552 47.4251 143.6 33.8879 160.557 12.731L 162.746 10Z"></path></g></g></g><g id="g-root-2.cu_sy_4hyfvfxchcec-fill" data-item-order="999959896" data-item-id="2.cu_sy_4hyfvfxchcec" data-item-class="Part Indexed Fill Stroke Arrow" data-item-index="2" data-renderer-id="0" transform="translate(115.658203125, 309.074951171875)"><g id="2.cu_sy_4hyfvfxchcec-fill" stroke="none" fill="#404b29"><g><path d="M 162.746 10L 168.208 14.3779L 166.019 17.1089C 147.79 39.852 119.766 54.4251 88.3397 54.4251C 60.1233 54.4251 34.6466 42.6759 16.543 23.8128L 12.9538 26.8813L 10 10.9876L 25.2412 16.3764L 21.873 19.256C 38.693 36.631 62.2536 47.4251 88.3397 47.4251C 117.552 47.4251 143.6 33.8879 160.557 12.731L 162.746 10Z"></path></g></g></g><g id="g-root-1.cu_sy_8xrxzvxchbm3-fill" data-item-order="999959898" data-item-id="1.cu_sy_8xrxzvxchbm3" data-item-class="Part Indexed Indexed_1 Fill Stroke Arrow" data-item-index="1" data-renderer-id="0" transform="translate(201.84765625, 154.8134765625)"><g id="1.cu_sy_8xrxzvxchbm3-fill" stroke="none" fill="#2b503e"><g><path d="M 10.8477 10L 14.3219 10.4238C 63.5352 16.4275 101.6523 58.3531 101.6523 109.1867C 101.6523 119.62 100.0452 129.685 97.0629 139.142L 101.4777 140.823L 88.9432 151.031L 86.3694 135.072L 90.5089 136.648C 93.2011 127.975 94.6523 118.754 94.6523 109.1867C 94.6523 61.9343 59.2183 22.9528 13.4742 17.3723L 10 16.9485L 10.8477 10Z"></path></g></g></g><g id="g-root-1.cu_sy_8xrxzvxchbm3-fill" data-item-order="999959898" data-item-id="1.cu_sy_8xrxzvxchbm3" data-item-class="Part Indexed Indexed_1 Fill Stroke Arrow" data-item-index="1" data-renderer-id="0" transform="translate(201.84765625, 154.8134765625)"><g id="1.cu_sy_8xrxzvxchbm3-fill" stroke="none" fill="#2b503e"><g><path d="M 10.8477 10L 14.3219 10.4238C 63.5352 16.4275 101.6523 58.3531 101.6523 109.1867C 101.6523 119.62 100.0452 129.685 97.0629 139.142L 101.4777 140.823L 88.9432 151.031L 86.3694 135.072L 90.5089 136.648C 93.2011 127.975 94.6523 118.754 94.6523 109.1867C 94.6523 61.9343 59.2183 22.9528 13.4742 17.3723L 10 16.9485L 10.8477 10Z"></path></g></g></g><g id="g-root-tx_userregi_1q88gkbxchamh-fill" data-item-order="1000000000" data-item-id="tx_userregi_1q88gkbxchamh" data-item-class="Label Stroke Title" data-item-index="none" data-renderer-id="0" transform="translate(26, 2)"><g id="tx_userregi_1q88gkbxchamh-fill" stroke="none" fill="#4F92FF"><g><text style="font: bold 20px Roboto, sans-serif; white-space: pre;" font-weight="bold" font-size="20" font-family="Roboto, sans-serif"><tspan x="17.3" y="33.5" dominant-baseline="ideographic">User Registration Submission Cycle</tspan></text></g></g></g><g id="g-root-tx_filloutf_24xqzxchd6o-fill" data-item-order="1000000000" data-item-id="tx_filloutf_24xqzxchd6o" data-item-class="Label Stroke Indexed Indexed_1" data-item-index="1" data-renderer-id="0" transform="translate(134, 86)"><g id="tx_filloutf_24xqzxchd6o-fill" stroke="none" fill="#A3A3A3"><g><text style="font: 20px &quot;Shantell Sans&quot;, cursive; white-space: pre;" font-weight="20px" font-size="&quot;Shantell" font-family="Sans', cursive"><tspan x="12.89" y="35.5" dominant-baseline="ideographic">Preencha o </tspan><tspan x="16.42" y="59.5" dominant-baseline="ideographic">formulário</tspan></text></g></g></g><g id="g-root-tx_filloutf_24xqzxchd6o-fill" data-item-order="1000000000" data-item-id="tx_filloutf_24xqzxchd6o" data-item-class="Label Stroke Indexed Indexed_1" data-item-index="1" data-renderer-id="0" transform="translate(134, 86)"><g id="tx_filloutf_24xqzxchd6o-fill" stroke="none" fill="#A3A3A3"><g><text style="font: 20px &quot;Shantell Sans&quot;, cursive; white-space: pre;" font-weight="20px" font-size="&quot;Shantell" font-family="Sans', cursive"><tspan x="12.89" y="35.5" dominant-baseline="ideographic">Preencha o </tspan><tspan x="16.42" y="59.5" dominant-baseline="ideographic">formulário</tspan></text></g></g></g><g id="g-root-tx_submitfo_1unfhlnxchczz-fill" data-item-order="1000000000" data-item-id="tx_submitfo_1unfhlnxchczz" data-item-class="Label Stroke Indexed" data-item-index="3" data-renderer-id="0" transform="translate(2, 290)"><g id="tx_submitfo_1unfhlnxchczz-fill" stroke="none" fill="#A3A3A3"><g><text style="font: 20px &quot;Shantell Sans&quot;, cursive; white-space: pre;" font-weight="20px" font-size="&quot;Shantell" font-family="Sans', cursive"><tspan x="12.04" y="35.5" dominant-baseline="ideographic">Envie os </tspan><tspan x="32.8" y="59.5" dominant-baseline="ideographic">dados</tspan></text></g></g></g><g id="g-root-tx_submitfo_1unfhlnxchczz-fill" data-item-order="1000000000" data-item-id="tx_submitfo_1unfhlnxchczz" data-item-class="Label Stroke Indexed" data-item-index="3" data-renderer-id="0" transform="translate(2, 290)"><g id="tx_submitfo_1unfhlnxchczz-fill" stroke="none" fill="#A3A3A3"><g><text style="font: 20px &quot;Shantell Sans&quot;, cursive; white-space: pre;" font-weight="20px" font-size="&quot;Shantell" font-family="Sans', cursive"><tspan x="12.04" y="35.5" dominant-baseline="ideographic">Envie os </tspan><tspan x="32.8" y="59.5" dominant-baseline="ideographic">dados</tspan></text></g></g></g><g id="g-root-tx_reviewin_4hyfvfxchcee-fill" data-item-order="1000000000" data-item-id="tx_reviewin_4hyfvfxchcee" data-item-class="Label Stroke Indexed" data-item-index="2" data-renderer-id="0" transform="translate(302, 290)"><g id="tx_reviewin_4hyfvfxchcee-fill" stroke="none" fill="#A3A3A3"><g><text style="font: 20px &quot;Shantell Sans&quot;, cursive; white-space: pre;" font-weight="20px" font-size="&quot;Shantell" font-family="Sans', cursive"><tspan x="12" y="35.5" dominant-baseline="ideographic">Revise as </tspan><tspan x="12" y="59.5" dominant-baseline="ideographic">informações</tspan></text></g></g></g><g id="g-root-tx_reviewin_4hyfvfxchcee-fill" data-item-order="1000000000" data-item-id="tx_reviewin_4hyfvfxchcee" data-item-class="Label Stroke Indexed" data-item-index="2" data-renderer-id="0" transform="translate(302, 290)"><g id="tx_reviewin_4hyfvfxchcee-fill" stroke="none" fill="#A3A3A3"><g><text style="font: 20px &quot;Shantell Sans&quot;, cursive; white-space: pre;" font-weight="20px" font-size="&quot;Shantell" font-family="Sans', cursive"><tspan x="12" y="35.5" dominant-baseline="ideographic">Revise as </tspan><tspan x="12" y="59.5" dominant-baseline="ideographic">informações</tspan></text></g></g></g><g id="g-root-3.cu_sy_4hyfvfxchced-stroke" data-item-order="999959894" data-item-id="3.cu_sy_4hyfvfxchced" data-item-class="Part Indexed Fill Stroke Arrow" data-item-index="3" data-renderer-id="0" transform="translate(94.5009765625, 151.93896484375)"><g id="3.cu_sy_4hyfvfxchced-stroke" fill="none" stroke-linecap="round" stroke-linejoin="round" stroke-miterlimit="4" stroke="#1AC6FF" stroke-width="2"><g><path d="M 88.324 10L 103.3643 15.9263L 90.7118 25.9885L 90.0575 21.6071C 48.3068 30.5364 17 67.6461 17 112.0611C 17 124.3347 19.3886 136.0417 23.723 146.7491L 25.0363 149.9934L 18.5478 152.62L 17.2345 149.3758C 12.568 137.8481 10 125.2501 10 112.0611C 10 64.1262 43.8933 24.1144 89.0216 14.6714L 88.324 10Z"></path></g></g></g><g id="g-root-3.cu_sy_4hyfvfxchced-stroke" data-item-order="999959894" data-item-id="3.cu_sy_4hyfvfxchced" data-item-class="Part Indexed Fill Stroke Arrow" data-item-index="3" data-renderer-id="0" transform="translate(94.5009765625, 151.93896484375)"><g id="3.cu_sy_4hyfvfxchced-stroke" fill="none" stroke-linecap="round" stroke-linejoin="round" stroke-miterlimit="4" stroke="#1AC6FF" stroke-width="2"><g><path d="M 88.324 10L 103.3643 15.9263L 90.7118 25.9885L 90.0575 21.6071C 48.3068 30.5364 17 67.6461 17 112.0611C 17 124.3347 19.3886 136.0417 23.723 146.7491L 25.0363 149.9934L 18.5478 152.62L 17.2345 149.3758C 12.568 137.8481 10 125.2501 10 112.0611C 10 64.1262 43.8933 24.1144 89.0216 14.6714L 88.324 10Z"></path></g></g></g><g id="g-root-2.cu_sy_4hyfvfxchcec-stroke" data-item-order="999959896" data-item-id="2.cu_sy_4hyfvfxchcec" data-item-class="Part Indexed Fill Stroke Arrow" data-item-index="2" data-renderer-id="0" transform="translate(115.658203125, 309.074951171875)"><g id="2.cu_sy_4hyfvfxchcec-stroke" fill="none" stroke-linecap="round" stroke-linejoin="round" stroke-miterlimit="4" stroke="#A8DD38" stroke-width="2"><g><path d="M 162.7462 10L 168.2082 14.3779L 166.0193 17.1089C 147.7903 39.852 119.7656 54.4251 88.3397 54.4251C 60.1233 54.4251 34.6466 42.6759 16.543 23.8128L 12.9538 26.8813L 10 10.9876L 25.2412 16.3764L 21.873 19.256C 38.693 36.631 62.2536 47.4251 88.3397 47.4251C 117.5517 47.4251 143.5996 33.8879 160.5573 12.731L 162.7462 10Z"></path></g></g></g><g id="g-root-2.cu_sy_4hyfvfxchcec-stroke" data-item-order="999959896" data-item-id="2.cu_sy_4hyfvfxchcec" data-item-class="Part Indexed Fill Stroke Arrow" data-item-index="2" data-renderer-id="0" transform="translate(115.658203125, 309.074951171875)"><g id="2.cu_sy_4hyfvfxchcec-stroke" fill="none" stroke-linecap="round" stroke-linejoin="round" stroke-miterlimit="4" stroke="#A8DD38" stroke-width="2"><g><path d="M 162.7462 10L 168.2082 14.3779L 166.0193 17.1089C 147.7903 39.852 119.7656 54.4251 88.3397 54.4251C 60.1233 54.4251 34.6466 42.6759 16.543 23.8128L 12.9538 26.8813L 10 10.9876L 25.2412 16.3764L 21.873 19.256C 38.693 36.631 62.2536 47.4251 88.3397 47.4251C 117.5517 47.4251 143.5996 33.8879 160.5573 12.731L 162.7462 10Z"></path></g></g></g><g id="g-root-1.cu_sy_8xrxzvxchbm3-stroke" data-item-order="999959898" data-item-id="1.cu_sy_8xrxzvxchbm3" data-item-class="Part Indexed Indexed_1 Fill Stroke Arrow" data-item-index="1" data-renderer-id="0" transform="translate(201.84765625, 154.8134765625)"><g id="1.cu_sy_8xrxzvxchbm3-stroke" fill="none" stroke-linecap="round" stroke-linejoin="round" stroke-miterlimit="4" stroke="#44E095" stroke-width="2"><g><path d="M 10.8477 10L 14.3219 10.4238C 63.5352 16.4275 101.6523 58.3531 101.6523 109.1867C 101.6523 119.6202 100.0452 129.6846 97.0629 139.1423L 101.4777 140.8227L 88.9432 151.0315L 86.3694 135.0719L 90.5089 136.6475C 93.2011 127.9754 94.6523 118.7535 94.6523 109.1867C 94.6523 61.9343 59.2183 22.9528 13.4742 17.3723L 10 16.9485L 10.8477 10Z"></path></g></g></g><g id="g-root-1.cu_sy_8xrxzvxchbm3-stroke" data-item-order="999959898" data-item-id="1.cu_sy_8xrxzvxchbm3" data-item-class="Part Indexed Indexed_1 Fill Stroke Arrow" data-item-index="1" data-renderer-id="0" transform="translate(201.84765625, 154.8134765625)"><g id="1.cu_sy_8xrxzvxchbm3-stroke" fill="none" stroke-linecap="round" stroke-linejoin="round" stroke-miterlimit="4" stroke="#44E095" stroke-width="2"><g><path d="M 10.8477 10L 14.3219 10.4238C 63.5352 16.4275 101.6523 58.3531 101.6523 109.1867C 101.6523 119.6202 100.0452 129.6846 97.0629 139.1423L 101.4777 140.8227L 88.9432 151.0315L 86.3694 135.0719L 90.5089 136.6475C 93.2011 127.9754 94.6523 118.7535 94.6523 109.1867C 94.6523 61.9343 59.2183 22.9528 13.4742 17.3723L 10 16.9485L 10.8477 10Z"></path></g></g></g><g id="g-root-tx_userregi_1q88gkbxchamh-stroke" data-item-order="1000000000" data-item-id="tx_userregi_1q88gkbxchamh" data-item-class="Label Stroke Title" data-item-index="none" data-renderer-id="0" transform="translate(26, 2)"></g><g id="g-root-tx_filloutf_24xqzxchd6o-stroke" data-item-order="1000000000" data-item-id="tx_filloutf_24xqzxchd6o" data-item-class="Label Stroke Indexed Indexed_1" data-item-index="1" data-renderer-id="0" transform="translate(134, 86)"></g><g id="g-root-tx_filloutf_24xqzxchd6o-stroke" data-item-order="1000000000" data-item-id="tx_filloutf_24xqzxchd6o" data-item-class="Label Stroke Indexed Indexed_1" data-item-index="1" data-renderer-id="0" transform="translate(134, 86)"></g><g id="g-root-tx_submitfo_1unfhlnxchczz-stroke" data-item-order="1000000000" data-item-id="tx_submitfo_1unfhlnxchczz" data-item-class="Label Stroke Indexed" data-item-index="3" data-renderer-id="0" transform="translate(2, 290)"></g><g id="g-root-tx_submitfo_1unfhlnxchczz-stroke" data-item-order="1000000000" data-item-id="tx_submitfo_1unfhlnxchczz" data-item-class="Label Stroke Indexed" data-item-index="3" data-renderer-id="0" transform="translate(2, 290)"></g><g id="g-root-tx_reviewin_4hyfvfxchcee-stroke" data-item-order="1000000000" data-item-id="tx_reviewin_4hyfvfxchcee" data-item-class="Label Stroke Indexed" data-item-index="2" data-renderer-id="0" transform="translate(302, 290)"></g><g id="g-root-tx_reviewin_4hyfvfxchcee-stroke" data-item-order="1000000000" data-item-id="tx_reviewin_4hyfvfxchcee" data-item-class="Label Stroke Indexed" data-item-index="2" data-renderer-id="0" transform="translate(302, 290)"></g></g></g></svg>