<?xml version="1.0" encoding="utf-8" standalone="yes"?>
<!DOCTYPE svg PUBLIC "-//W3C//DTD SVG 1.1//EN" "http://www.w3.org/Graphics/SVG/1.1/DTD/svg11.dtd">
<svg width="493" height="279" viewBox="0 0 493 279" style="fill:none;stroke:none;fill-rule:evenodd;clip-rule:evenodd;stroke-linecap:round;stroke-linejoin:round;stroke-miterlimit:1.5;" version="1.1" xmlns="http://www.w3.org/2000/svg" xmlns:xlink="http://www.w3.org/1999/xlink"><style id="fontImports">@import url("https://fonts.googleapis.com/css2?family=Shantell+Sans:wght@300..800&amp;display=block");</style><g id="items" style="isolation: isolate"><g id="blend" style="mix-blend-mode:normal"><g id="g-root-48px_djtbbgv43qxb-fill" data-item-order="1000000000" data-item-id="48px_djtbbgv43qxb" data-item-class="Icon Stroke" data-item-index="none" data-renderer-id="0" transform="translate(142.0126953125, 11)"></g><g id="g-root-48px_djtbbgv43qxb-fill" data-item-order="1000000000" data-item-id="48px_djtbbgv43qxb" data-item-class="Icon Stroke" data-item-index="none" data-renderer-id="0" transform="translate(142.0126953125, 11)"></g><g id="g-root-tx_filloutf_1ut1kzgxc7jeq-fill" data-item-order="1000000000" data-item-id="tx_filloutf_1ut1kzgxc7jeq" data-item-class="Label Stroke" data-item-index="none" data-renderer-id="0" transform="translate(178.0126953125, 2)"><g id="tx_filloutf_1ut1kzgxc7jeq-fill" stroke="none" fill="#484848"><g><text style="font: 20px &quot;Shantell Sans&quot;, cursive; white-space: pre;" font-weight="20px" font-size="&quot;Shantell" font-family="Sans', cursive"><tspan x="12.89" y="35.5" dominant-baseline="ideographic">Preencha o </tspan><tspan x="16.42" y="59.5" dominant-baseline="ideographic">formulário</tspan></text></g></g></g><g id="g-root-tx_filloutf_1ut1kzgxc7jeq-fill" data-item-order="1000000000" data-item-id="tx_filloutf_1ut1kzgxc7jeq" data-item-class="Label Stroke" data-item-index="none" data-renderer-id="0" transform="translate(178.0126953125, 2)"><g id="tx_filloutf_1ut1kzgxc7jeq-fill" stroke="none" fill="#484848"><g><text style="font: 20px &quot;Shantell Sans&quot;, cursive; white-space: pre;" font-weight="20px" font-size="&quot;Shantell" font-family="Sans', cursive"><tspan x="12.89" y="35.5" dominant-baseline="ideographic">Preencha o </tspan><tspan x="16.42" y="59.5" dominant-baseline="ideographic">formulário</tspan></text></g></g></g><g id="g-root-48px_91isgcz0diiy-fill" data-item-order="1000000000" data-item-id="48px_91isgcz0diiy" data-item-class="Icon Stroke" data-item-index="none" data-renderer-id="0" transform="translate(3, 217.715087890625)"></g><g id="g-root-48px_91isgcz0diiy-fill" data-item-order="1000000000" data-item-id="48px_91isgcz0diiy" data-item-class="Icon Stroke" data-item-index="none" data-renderer-id="0" transform="translate(3, 217.715087890625)"></g><g id="g-root-tx_submitfo_1ut1kzgxc7jeu-fill" data-item-order="1000000000" data-item-id="tx_submitfo_1ut1kzgxc7jeu" data-item-class="Label Stroke" data-item-index="none" data-renderer-id="0" transform="translate(39, 208.715087890625)"><g id="tx_submitfo_1ut1kzgxc7jeu-fill" stroke="none" fill="#484848"><g><text style="font: 20px &quot;Shantell Sans&quot;, cursive; white-space: pre;" font-weight="20px" font-size="&quot;Shantell" font-family="Sans', cursive"><tspan x="12.04" y="35.5" dominant-baseline="ideographic">Envie os </tspan><tspan x="32.8" y="59.5" dominant-baseline="ideographic">dados</tspan></text></g></g></g><g id="g-root-tx_submitfo_1ut1kzgxc7jeu-fill" data-item-order="1000000000" data-item-id="tx_submitfo_1ut1kzgxc7jeu" data-item-class="Label Stroke" data-item-index="none" data-renderer-id="0" transform="translate(39, 208.715087890625)"><g id="tx_submitfo_1ut1kzgxc7jeu-fill" stroke="none" fill="#484848"><g><text style="font: 20px &quot;Shantell Sans&quot;, cursive; white-space: pre;" font-weight="20px" font-size="&quot;Shantell" font-family="Sans', cursive"><tspan x="12.04" y="35.5" dominant-baseline="ideographic">Envie os </tspan><tspan x="32.8" y="59.5" dominant-baseline="ideographic">dados</tspan></text></g></g></g><g id="g-root-48px_8z0za4v4j5ky-fill" data-item-order="1000000000" data-item-id="48px_8z0za4v4j5ky" data-item-class="Icon Stroke" data-item-index="none" data-renderer-id="0" transform="translate(303, 217.715087890625)"></g><g id="g-root-48px_8z0za4v4j5ky-fill" data-item-order="1000000000" data-item-id="48px_8z0za4v4j5ky" data-item-class="Icon Stroke" data-item-index="none" data-renderer-id="0" transform="translate(303, 217.715087890625)"></g><g id="g-root-tx_reviewin_1ut1kzgxc7jev-fill" data-item-order="1000000000" data-item-id="tx_reviewin_1ut1kzgxc7jev" data-item-class="Label Stroke" data-item-index="none" data-renderer-id="0" transform="translate(339, 208.715087890625)"><g id="tx_reviewin_1ut1kzgxc7jev-fill" stroke="none" fill="#484848"><g><text style="font: 20px &quot;Shantell Sans&quot;, cursive; white-space: pre;" font-weight="20px" font-size="&quot;Shantell" font-family="Sans', cursive"><tspan x="12" y="35.5" dominant-baseline="ideographic">Revise as </tspan><tspan x="12" y="59.5" dominant-baseline="ideographic">informações</tspan></text></g></g></g><g id="g-root-tx_reviewin_1ut1kzgxc7jev-fill" data-item-order="1000000000" data-item-id="tx_reviewin_1ut1kzgxc7jev" data-item-class="Label Stroke" data-item-index="none" data-renderer-id="0" transform="translate(339, 208.715087890625)"><g id="tx_reviewin_1ut1kzgxc7jev-fill" stroke="none" fill="#484848"><g><text style="font: 20px &quot;Shantell Sans&quot;, cursive; white-space: pre;" font-weight="20px" font-size="&quot;Shantell" font-family="Sans', cursive"><tspan x="12" y="35.5" dominant-baseline="ideographic">Revise as </tspan><tspan x="12" y="59.5" dominant-baseline="ideographic">informações</tspan></text></g></g></g><g id="g-root-48px_djtbbgv43qxb-stroke" data-item-order="1000000000" data-item-id="48px_djtbbgv43qxb" data-item-class="Icon Stroke" data-item-index="none" data-renderer-id="0" transform="translate(142.0126953125, 11)"><g id="48px_djtbbgv43qxb-stroke" fill="none" stroke-linecap="round" stroke-linejoin="round" stroke-miterlimit="4" stroke="#484848" stroke-width="2"><g><path d="M 27.401125 18.360876L 32.685562 16.36475L 32.685562 33.719376M 13.170169 22.611563C 13.170169 19.051062 14.867956 16.059525 18.131687 16.059525C 21.3955 16.059525 23.09325 19.051062 23.09325 22.611563L 23.09325 27.045437C 23.09325 30.605938 21.315876 33.675999 18.131687 33.675999C 14.947556 33.675999 13.170169 30.605938 13.170169 27.045437L 13.170169 22.611563Z"></path></g></g></g><g id="g-root-48px_djtbbgv43qxb-stroke" data-item-order="1000000000" data-item-id="48px_djtbbgv43qxb" data-item-class="Icon Stroke" data-item-index="none" data-renderer-id="0" transform="translate(142.0126953125, 11)"><g id="48px_djtbbgv43qxb-stroke" fill="none" stroke-linecap="round" stroke-linejoin="round" stroke-miterlimit="4" stroke="#484848" stroke-width="2"><g><path d="M 27.401125 18.360876L 32.685562 16.36475L 32.685562 33.719376M 13.170169 22.611563C 13.170169 19.051062 14.867956 16.059525 18.131687 16.059525C 21.3955 16.059525 23.09325 19.051062 23.09325 22.611563L 23.09325 27.045437C 23.09325 30.605938 21.315876 33.675999 18.131687 33.675999C 14.947556 33.675999 13.170169 30.605938 13.170169 27.045437L 13.170169 22.611563Z"></path></g></g></g><g id="g-root-tx_filloutf_1ut1kzgxc7jeq-stroke" data-item-order="1000000000" data-item-id="tx_filloutf_1ut1kzgxc7jeq" data-item-class="Label Stroke" data-item-index="none" data-renderer-id="0" transform="translate(178.0126953125, 2)"></g><g id="g-root-tx_filloutf_1ut1kzgxc7jeq-stroke" data-item-order="1000000000" data-item-id="tx_filloutf_1ut1kzgxc7jeq" data-item-class="Label Stroke" data-item-index="none" data-renderer-id="0" transform="translate(178.0126953125, 2)"></g><g id="g-root-48px_91isgcz0diiy-stroke" data-item-order="1000000000" data-item-id="48px_91isgcz0diiy" data-item-class="Icon Stroke" data-item-index="none" data-renderer-id="0" transform="translate(3, 217.715087890625)"><g id="48px_91isgcz0diiy-stroke" fill="none" stroke-linecap="round" stroke-linejoin="round" stroke-miterlimit="4" stroke="#484848" stroke-width="2"><g><path d="M 13.170169 22.611563C 13.170169 19.051062 14.867956 16.059525 18.131687 16.059525C 21.3955 16.059525 23.09325 19.051062 23.09325 22.611563L 23.09325 27.045437C 23.09325 30.605938 21.315876 33.675999 18.131687 33.675999C 14.947556 33.675999 13.170169 30.605938 13.170169 27.045437L 13.170169 22.611563ZM 26.95075 20.667562C 26.876312 19.162001 27.801624 16.068712 31.915813 16.068712C 36.029999 16.068712 36.660187 19.123375 36.517624 20.848125C 36.360439 22.749937 35.169876 24.692438 30.125437 24.692438C 34.820999 24.692438 36.953438 25.97625 36.953438 29.452812C 36.953438 32.458 34.297188 33.681126 31.870125 33.681126C 30.125875 33.666252 26.637251 32.67944 26.637251 28.851376"></path></g></g></g><g id="g-root-48px_91isgcz0diiy-stroke" data-item-order="1000000000" data-item-id="48px_91isgcz0diiy" data-item-class="Icon Stroke" data-item-index="none" data-renderer-id="0" transform="translate(3, 217.715087890625)"><g id="48px_91isgcz0diiy-stroke" fill="none" stroke-linecap="round" stroke-linejoin="round" stroke-miterlimit="4" stroke="#484848" stroke-width="2"><g><path d="M 13.170169 22.611563C 13.170169 19.051062 14.867956 16.059525 18.131687 16.059525C 21.3955 16.059525 23.09325 19.051062 23.09325 22.611563L 23.09325 27.045437C 23.09325 30.605938 21.315876 33.675999 18.131687 33.675999C 14.947556 33.675999 13.170169 30.605938 13.170169 27.045437L 13.170169 22.611563ZM 26.95075 20.667562C 26.876312 19.162001 27.801624 16.068712 31.915813 16.068712C 36.029999 16.068712 36.660187 19.123375 36.517624 20.848125C 36.360439 22.749937 35.169876 24.692438 30.125437 24.692438C 34.820999 24.692438 36.953438 25.97625 36.953438 29.452812C 36.953438 32.458 34.297188 33.681126 31.870125 33.681126C 30.125875 33.666252 26.637251 32.67944 26.637251 28.851376"></path></g></g></g><g id="g-root-tx_submitfo_1ut1kzgxc7jeu-stroke" data-item-order="1000000000" data-item-id="tx_submitfo_1ut1kzgxc7jeu" data-item-class="Label Stroke" data-item-index="none" data-renderer-id="0" transform="translate(39, 208.715087890625)"></g><g id="g-root-tx_submitfo_1ut1kzgxc7jeu-stroke" data-item-order="1000000000" data-item-id="tx_submitfo_1ut1kzgxc7jeu" data-item-class="Label Stroke" data-item-index="none" data-renderer-id="0" transform="translate(39, 208.715087890625)"></g><g id="g-root-48px_8z0za4v4j5ky-stroke" data-item-order="1000000000" data-item-id="48px_8z0za4v4j5ky" data-item-class="Icon Stroke" data-item-index="none" data-renderer-id="0" transform="translate(303, 217.715087890625)"><g id="48px_8z0za4v4j5ky-stroke" fill="none" stroke-linecap="round" stroke-linejoin="round" stroke-miterlimit="4" stroke="#484848" stroke-width="2"><g><path d="M 13.170169 22.611563C 13.170169 19.051062 14.867956 16.059525 18.131687 16.059525C 21.3955 16.059525 23.09325 19.051062 23.09325 22.611563L 23.09325 27.045437C 23.09325 30.605938 21.315876 33.675999 18.131687 33.675999C 14.947556 33.675999 13.170169 30.605938 13.170169 27.045437L 13.170169 22.611563ZM 26.769688 20.947124C 26.769688 18.059437 28.784939 16.059568 31.523499 16.059568C 36.066624 16.059568 37.616188 20.492876 34.638313 24.436501L 27.081249 33.385937L 37.469185 33.385937"></path></g></g></g><g id="g-root-48px_8z0za4v4j5ky-stroke" data-item-order="1000000000" data-item-id="48px_8z0za4v4j5ky" data-item-class="Icon Stroke" data-item-index="none" data-renderer-id="0" transform="translate(303, 217.715087890625)"><g id="48px_8z0za4v4j5ky-stroke" fill="none" stroke-linecap="round" stroke-linejoin="round" stroke-miterlimit="4" stroke="#484848" stroke-width="2"><g><path d="M 13.170169 22.611563C 13.170169 19.051062 14.867956 16.059525 18.131687 16.059525C 21.3955 16.059525 23.09325 19.051062 23.09325 22.611563L 23.09325 27.045437C 23.09325 30.605938 21.315876 33.675999 18.131687 33.675999C 14.947556 33.675999 13.170169 30.605938 13.170169 27.045437L 13.170169 22.611563ZM 26.769688 20.947124C 26.769688 18.059437 28.784939 16.059568 31.523499 16.059568C 36.066624 16.059568 37.616188 20.492876 34.638313 24.436501L 27.081249 33.385937L 37.469185 33.385937"></path></g></g></g><g id="g-root-tx_reviewin_1ut1kzgxc7jev-stroke" data-item-order="1000000000" data-item-id="tx_reviewin_1ut1kzgxc7jev" data-item-class="Label Stroke" data-item-index="none" data-renderer-id="0" transform="translate(339, 208.715087890625)"></g><g id="g-root-tx_reviewin_1ut1kzgxc7jev-stroke" data-item-order="1000000000" data-item-id="tx_reviewin_1ut1kzgxc7jev" data-item-class="Label Stroke" data-item-index="none" data-renderer-id="0" transform="translate(339, 208.715087890625)"></g></g></g></svg>