<?xml version="1.0" encoding="utf-8" standalone="yes"?>
<!DOCTYPE svg PUBLIC "-//W3C//DTD SVG 1.1//EN" "http://www.w3.org/Graphics/SVG/1.1/DTD/svg11.dtd">
<svg width="616" height="160" viewBox="0 0 616 160" style="fill:none;stroke:none;fill-rule:evenodd;clip-rule:evenodd;stroke-linecap:round;stroke-linejoin:round;stroke-miterlimit:1.5;" version="1.1" xmlns="http://www.w3.org/2000/svg" xmlns:xlink="http://www.w3.org/1999/xlink"><style id="fontImports">@import url("https://fonts.googleapis.com/css2?family=Roboto:wght@400;700&amp;display=block");</style><g id="items" style="isolation: isolate"><g id="blend" style="mix-blend-mode:normal"><g id="g-root-star_qq9xrb13q2dcd-fill" data-item-order="1000000000" data-item-id="star_qq9xrb13q2dcd" data-item-class="Icon Stroke" data-item-index="none" data-renderer-id="0" transform="translate(3, 3)"></g><g id="g-root-tx_vzfr13q57gq-fill" data-item-order="1000000000" data-item-id="tx_vzfr13q57gq" data-item-class="Label Stroke" data-item-index="none" data-renderer-id="0" transform="translate(126, 18)"><g id="tx_vzfr13q57gq-fill" stroke="none" fill="#484848"><g><text style="font: 20px Roboto, sans-serif; white-space: pre;" font-weight="20px" font-size="Roboto," font-family="sans-serif"><tspan x="12" y="33.6" dominant-baseline="ideographic">Delfos Machine</tspan></text></g></g></g><g id="g-root-tx_18f252v10ebggb-fill" data-item-order="1000000000" data-item-id="tx_18f252v10ebggb" data-item-class="Label Stroke" data-item-index="none" data-renderer-id="0" transform="translate(126, 42)"><g id="tx_18f252v10ebggb-fill" stroke="none" fill="#484848"><g><text style="font: bold 25px Roboto, sans-serif; white-space: pre;" font-weight="bold" font-size="25" font-family="Roboto, sans-serif"><tspan x="12" y="42.6" dominant-baseline="ideographic">Prevenir é CUIDAR: Cliente SEGURO, </tspan><tspan x="12" y="72.6" dominant-baseline="ideographic">Parceiro RENTÁVEL.</tspan></text></g></g></g><g id="g-root-star_qq9xrb13q2dcd-stroke" data-item-order="1000000000" data-item-id="star_qq9xrb13q2dcd" data-item-class="Icon Stroke" data-item-index="none" data-renderer-id="0" transform="translate(3, 3)"><g id="star_qq9xrb13q2dcd-stroke" fill="none" stroke-linecap="round" stroke-linejoin="round" stroke-miterlimit="4" stroke="#17b0e3" stroke-width="2"><g><path d="M 40.625 102.96875C 72.04187 102.96875 79.5625 85.46875 99.6875 85.46875C 106.936241 85.46875 112.8125 91.345016 112.8125 98.59375C 112.8125 105.842491 106.936241 111.71875 99.6875 111.71875L 25.3125 111.71875C 18.063763 111.71875 12.187501 105.842491 12.187501 98.59375C 12.187501 91.345016 18.063763 85.46875 25.3125 85.46875C 45.4375 85.46875 52.958126 102.96875 84.375 102.96875M 99.6875 13.28125C 99.297012 16.284891 100.323105 19.299612 102.464867 21.44138C 104.606636 23.583147 107.621361 24.609232 110.625 24.21875C 103.55938 24.192499 100.046249 27.981251 99.6875 35.15625C 100.115364 32.144451 99.101517 29.106829 96.950462 26.955786C 94.799423 24.804739 91.761795 23.790884 88.75 24.21875C 91.753242 24.607405 94.766846 23.580721 96.908165 21.439405C 99.049477 19.29809 100.076157 16.284485 99.687508 13.28125M 34.0625 13.28125C 34.014374 25.649374 40.047501 32.675625 53.75 32.96875C 41.031876 32.920624 34.709999 39.75 34.0625 52.65625C 33.953125 40.47625 28.493126 32.96875 14.375 32.96875C 27.01 32.789375 34.014374 26.695 34.0625 13.28125M 62.5 32.96875C 75.564171 32.969112 87.383461 40.719315 92.591515 52.700493C 97.799568 64.681671 95.404007 78.610878 86.492508 88.163757M 38.511875 88.168129C 32.831749 82.098778 29.676426 74.093933 29.6875 65.78125C 29.688643 64.318192 29.785099 62.856766 29.97625 61.40625"></path></g></g></g><g id="g-root-tx_vzfr13q57gq-stroke" data-item-order="1000000000" data-item-id="tx_vzfr13q57gq" data-item-class="Label Stroke" data-item-index="none" data-renderer-id="0" transform="translate(126, 18)"></g><g id="g-root-tx_18f252v10ebggb-stroke" data-item-order="1000000000" data-item-id="tx_18f252v10ebggb" data-item-class="Label Stroke" data-item-index="none" data-renderer-id="0" transform="translate(126, 42)"></g></g></g></svg>