<?xml version="1.0" encoding="utf-8" standalone="yes"?>
<!DOCTYPE svg PUBLIC "-//W3C//DTD SVG 1.1//EN" "http://www.w3.org/Graphics/SVG/1.1/DTD/svg11.dtd">
<svg width="289" height="60" viewBox="0 0 289 60" style="fill:none;stroke:none;fill-rule:evenodd;clip-rule:evenodd;stroke-linecap:round;stroke-linejoin:round;stroke-miterlimit:1.5;" version="1.1" xmlns="http://www.w3.org/2000/svg" xmlns:xlink="http://www.w3.org/1999/xlink"><style id="fontImports">@import url("https://fonts.googleapis.com/css2?family=Shantell+Sans:wght@300..800&amp;display=block");</style><g id="items" style="isolation: isolate"><g id="blend" style="mix-blend-mode:normal"><g id="g-root-star_1q5poh311hufbg-fill" data-item-order="1000000000" data-item-id="star_1q5poh311hufbg" data-item-class="Icon Stroke" data-item-index="none" data-renderer-id="0" transform="translate(3, 5)"></g><g id="g-root-star_1q5poh311hufbg-fill" data-item-order="1000000000" data-item-id="star_1q5poh311hufbg" data-item-class="Icon Stroke" data-item-index="none" data-renderer-id="0" transform="translate(3, 5)"></g><g id="g-root-tx_1464qhz11hudxi-fill" data-item-order="1000000000" data-item-id="tx_1464qhz11hudxi" data-item-class="Label Stroke" data-item-index="none" data-renderer-id="0" transform="translate(39, 2)"><g id="tx_1464qhz11hudxi-fill" stroke="none" fill="#484848"><g><text style="font: 30px &quot;Shantell Sans&quot;, cursive; white-space: pre;" font-weight="30px" font-size="&quot;Shantell" font-family="Sans', cursive"><tspan x="12" y="48" dominant-baseline="ideographic">Delfos Machine</tspan></text></g></g></g><g id="g-root-tx_1464qhz11hudxi-fill" data-item-order="1000000000" data-item-id="tx_1464qhz11hudxi" data-item-class="Label Stroke" data-item-index="none" data-renderer-id="0" transform="translate(39, 2)"><g id="tx_1464qhz11hudxi-fill" stroke="none" fill="#484848"><g><text style="font: 30px &quot;Shantell Sans&quot;, cursive; white-space: pre;" font-weight="30px" font-size="&quot;Shantell" font-family="Sans', cursive"><tspan x="12" y="48" dominant-baseline="ideographic">Delfos Machine</tspan></text></g></g></g><g id="g-root-star_1q5poh311hufbg-stroke" data-item-order="1000000000" data-item-id="star_1q5poh311hufbg" data-item-class="Icon Stroke" data-item-index="none" data-renderer-id="0" transform="translate(3, 5)"><g id="star_1q5poh311hufbg-stroke" fill="none" stroke-linecap="round" stroke-linejoin="round" stroke-miterlimit="4" stroke="#484848" stroke-width="2"><g><path d="M 18.75 36.5625C 27.72625 36.5625 29.875 31.5625 35.625 31.5625C 37.696068 31.5625 39.375 33.241432 39.375 35.3125C 39.375 37.383568 37.696068 39.0625 35.625 39.0625L 14.375 39.0625C 12.303932 39.0625 10.625 37.383568 10.625 35.3125C 10.625 33.241432 12.303932 31.5625 14.375 31.5625C 20.125 31.5625 22.27375 36.5625 31.25 36.5625M 35.625 10.9375C 35.513432 11.795683 35.806602 12.657032 36.418533 13.268966C 37.030468 13.880899 37.891815 14.174067 38.75 14.0625C 36.731251 14.055 35.727501 15.1375 35.625 17.1875C 35.747246 16.326986 35.457577 15.459094 34.842991 14.84451C 34.228405 14.229925 33.360512 13.940252 32.5 14.0625C 33.35807 14.173544 34.219097 13.880206 34.830902 13.268401C 35.442707 12.656597 35.736046 11.795568 35.625004 10.9375M 16.875 10.9375C 16.86125 14.47125 18.584999 16.47875 22.5 16.5625C 18.866249 16.54875 17.059999 18.5 16.875 22.1875C 16.84375 18.7075 15.283751 16.5625 11.25 16.5625C 14.86 16.51125 16.86125 14.77 16.875 10.9375M 25 16.5625C 28.73262 16.562603 32.109562 18.776947 33.597576 22.200142C 35.08559 25.623335 34.401146 29.603107 31.855001 32.3325M 18.14625 32.333752C 16.523357 30.599651 15.621836 28.312551 15.625 25.9375C 15.625326 25.519484 15.652885 25.101933 15.7075 24.6875"></path></g></g></g><g id="g-root-star_1q5poh311hufbg-stroke" data-item-order="1000000000" data-item-id="star_1q5poh311hufbg" data-item-class="Icon Stroke" data-item-index="none" data-renderer-id="0" transform="translate(3, 5)"><g id="star_1q5poh311hufbg-stroke" fill="none" stroke-linecap="round" stroke-linejoin="round" stroke-miterlimit="4" stroke="#484848" stroke-width="2"><g><path d="M 18.75 36.5625C 27.72625 36.5625 29.875 31.5625 35.625 31.5625C 37.696068 31.5625 39.375 33.241432 39.375 35.3125C 39.375 37.383568 37.696068 39.0625 35.625 39.0625L 14.375 39.0625C 12.303932 39.0625 10.625 37.383568 10.625 35.3125C 10.625 33.241432 12.303932 31.5625 14.375 31.5625C 20.125 31.5625 22.27375 36.5625 31.25 36.5625M 35.625 10.9375C 35.513432 11.795683 35.806602 12.657032 36.418533 13.268966C 37.030468 13.880899 37.891815 14.174067 38.75 14.0625C 36.731251 14.055 35.727501 15.1375 35.625 17.1875C 35.747246 16.326986 35.457577 15.459094 34.842991 14.84451C 34.228405 14.229925 33.360512 13.940252 32.5 14.0625C 33.35807 14.173544 34.219097 13.880206 34.830902 13.268401C 35.442707 12.656597 35.736046 11.795568 35.625004 10.9375M 16.875 10.9375C 16.86125 14.47125 18.584999 16.47875 22.5 16.5625C 18.866249 16.54875 17.059999 18.5 16.875 22.1875C 16.84375 18.7075 15.283751 16.5625 11.25 16.5625C 14.86 16.51125 16.86125 14.77 16.875 10.9375M 25 16.5625C 28.73262 16.562603 32.109562 18.776947 33.597576 22.200142C 35.08559 25.623335 34.401146 29.603107 31.855001 32.3325M 18.14625 32.333752C 16.523357 30.599651 15.621836 28.312551 15.625 25.9375C 15.625326 25.519484 15.652885 25.101933 15.7075 24.6875"></path></g></g></g><g id="g-root-tx_1464qhz11hudxi-stroke" data-item-order="1000000000" data-item-id="tx_1464qhz11hudxi" data-item-class="Label Stroke" data-item-index="none" data-renderer-id="0" transform="translate(39, 2)"></g><g id="g-root-tx_1464qhz11hudxi-stroke" data-item-order="1000000000" data-item-id="tx_1464qhz11hudxi" data-item-class="Label Stroke" data-item-index="none" data-renderer-id="0" transform="translate(39, 2)"></g></g></g></svg>