<?xml version="1.0" encoding="utf-8" standalone="yes"?>
<!DOCTYPE svg PUBLIC "-//W3C//DTD SVG 1.1//EN" "http://www.w3.org/Graphics/SVG/1.1/DTD/svg11.dtd">
<svg width="375" height="96" viewBox="0 0 375 96" style="fill:none;stroke:none;fill-rule:evenodd;clip-rule:evenodd;stroke-linecap:round;stroke-linejoin:round;stroke-miterlimit:1.5;" version="1.1" xmlns="http://www.w3.org/2000/svg" xmlns:xlink="http://www.w3.org/1999/xlink"><style id="fontImports">@import url("https://fonts.googleapis.com/css2?family=Roboto:wght@400;700&amp;display=block");</style><g id="items" style="isolation: isolate"><g id="blend" style="mix-blend-mode:normal"><g id="g-root-star_m9u4xn12lycjp-fill" data-item-order="1000000000" data-item-id="star_m9u4xn12lycjp" data-item-class="Icon Stroke" data-item-index="none" data-renderer-id="0" transform="translate(3, 3)"></g><g id="g-root-tx_m9u4xn12lycjq-fill" data-item-order="1000000000" data-item-id="tx_m9u4xn12lycjq" data-item-class="Label Stroke" data-item-index="none" data-renderer-id="0" transform="translate(76.91961669921875, 18.5235595703125)"><g id="tx_m9u4xn12lycjq-fill" stroke="none" fill="#484848"><g><text style="font: 30px Roboto, sans-serif; white-space: pre;" font-weight="30px" font-size="Roboto," font-family="sans-serif"><tspan x="12" y="51.6" dominant-baseline="ideographic">Delfos Machine</tspan></text></g></g></g><g id="g-root-star_m9u4xn12lycjp-stroke" data-item-order="1000000000" data-item-id="star_m9u4xn12lycjp" data-item-class="Icon Stroke" data-item-index="none" data-renderer-id="0" transform="translate(3, 3)"><g id="star_m9u4xn12lycjp-stroke" fill="none" stroke-linecap="round" stroke-linejoin="round" stroke-miterlimit="4" stroke="#484848" stroke-width="2"><g><path d="M 30.277691 71.557327C 51.079723 71.557327 56.059345 59.970062 69.384697 59.970062C 74.184303 59.970062 78.075142 63.860912 78.075142 68.660507C 78.075142 73.460114 74.184303 77.350952 69.384697 77.350952L 20.138838 77.350952C 15.339238 77.350952 11.448393 73.460114 11.448393 68.660507C 11.448393 63.860912 15.339238 59.970062 20.138838 59.970062C 33.464191 59.970062 38.443813 71.557327 59.245846 71.557327M 69.384697 12.172611C 69.126144 14.161409 69.80555 16.157545 71.223671 17.575672C 72.6418 18.993797 74.637939 19.673201 76.62674 19.41465C 71.94838 19.397268 69.622238 21.90591 69.384697 26.656689C 69.667999 24.662489 68.996696 22.65119 67.572426 21.226921C 66.148155 19.80265 64.136856 19.131348 62.142662 19.41465C 64.131195 19.671989 66.126587 18.992191 67.544418 17.574364C 68.962242 16.156536 69.642044 14.161141 69.384705 12.172611M 25.932468 12.172611C 25.900604 20.361908 29.895313 25.014194 38.96814 25.208281C 30.547096 25.176414 26.361197 29.698345 25.932468 38.24395C 25.860048 30.179216 22.244823 25.208281 12.8968 25.208281C 21.262802 25.089512 25.900604 21.054247 25.932468 12.172611M 44.761768 25.208281C 53.411934 25.208521 61.237835 30.340157 64.686241 38.273243C 68.134644 46.206333 66.54847 55.429264 60.647907 61.754505M 28.878531 61.757401C 25.117554 57.738708 23.028322 52.438465 23.035654 46.934395C 23.036411 45.965664 23.100277 44.998009 23.226843 44.037579"></path></g></g></g><g id="g-root-tx_m9u4xn12lycjq-stroke" data-item-order="1000000000" data-item-id="tx_m9u4xn12lycjq" data-item-class="Label Stroke" data-item-index="none" data-renderer-id="0" transform="translate(76.91961669921875, 18.5235595703125)"></g></g></g></svg>