<?xml version="1.0" encoding="utf-8" standalone="yes"?>
<!DOCTYPE svg PUBLIC "-//W3C//DTD SVG 1.1//EN" "http://www.w3.org/Graphics/SVG/1.1/DTD/svg11.dtd">
<svg width="314" height="229" viewBox="0 0 314 229" style="fill:none;stroke:none;fill-rule:evenodd;clip-rule:evenodd;stroke-linecap:round;stroke-linejoin:round;stroke-miterlimit:1.5;" version="1.1" xmlns="http://www.w3.org/2000/svg" xmlns:xlink="http://www.w3.org/1999/xlink"><style id="fontImports">@import url("https://fonts.googleapis.com/css2?family=Roboto:wght@400;700&amp;display=block");</style><g id="items" style="isolation: isolate"><g id="blend" style="mix-blend-mode:normal"><g id="g-root-ro_zishkdvyaxog-fill" data-item-order="999984448" data-item-id="ro_zishkdvyaxog" data-item-class="Shape Stroke Fill" data-item-index="none" data-renderer-id="0" transform="translate(3, 3)"><g id="ro_zishkdvyaxog-fill" stroke="none" fill="#e9fbf3"><g><path d="M 22 10L 286 10C 286 10 298 10 298 22L 298 52C 298 52 298 64 286 64L 22 64C 22 64 10 64 10 52L 10 22C 10 22 10 10 22 10"></path></g></g></g><g id="g-root-ro_zishkdvyaxog-fill" data-item-order="999984448" data-item-id="ro_zishkdvyaxog" data-item-class="Shape Stroke Fill" data-item-index="none" data-renderer-id="0" transform="translate(3, 3)"><g id="ro_zishkdvyaxog-fill" stroke="none" fill="#e9fbf3"><g><path d="M 22 10L 286 10C 286 10 298 10 298 22L 298 52C 298 52 298 64 286 64L 22 64C 22 64 10 64 10 52L 10 22C 10 22 10 10 22 10"></path></g></g></g><g id="g-root-ro_zishkdvyaxog-fill" data-item-order="999984448" data-item-id="ro_zishkdvyaxog" data-item-class="Shape Stroke Fill" data-item-index="none" data-renderer-id="0" transform="translate(3, 3)"><g id="ro_zishkdvyaxog-fill" stroke="none" fill="#e9fbf3"><g><path d="M 22 10L 286 10C 286 10 298 10 298 22L 298 52C 298 52 298 64 286 64L 22 64C 22 64 10 64 10 52L 10 22C 10 22 10 10 22 10"></path></g></g></g><g id="g-root-tx_informae_zishkdvyaxoh-fill" data-item-order="1000000000" data-item-id="tx_informae_zishkdvyaxoh" data-item-class="Label Stroke" data-item-index="none" data-renderer-id="0" transform="translate(81, 18)"><g id="tx_informae_zishkdvyaxoh-fill" stroke="none" fill="#3bc482"><g><text style="font: 20px Roboto, sans-serif; white-space: pre;" font-weight="20px" font-size="Roboto," font-family="sans-serif"><tspan x="17.56" y="33.5" dominant-baseline="ideographic">Cadastro</tspan></text></g></g></g><g id="g-root-tx_informae_zishkdvyaxoh-fill" data-item-order="1000000000" data-item-id="tx_informae_zishkdvyaxoh" data-item-class="Label Stroke" data-item-index="none" data-renderer-id="0" transform="translate(81, 18)"><g id="tx_informae_zishkdvyaxoh-fill" stroke="none" fill="#3bc482"><g><text style="font: 20px Roboto, sans-serif; white-space: pre;" font-weight="20px" font-size="Roboto," font-family="sans-serif"><tspan x="17.56" y="33.5" dominant-baseline="ideographic">Cadastro</tspan></text></g></g></g><g id="g-root-brow_zishkdvyaxoi-fill" data-item-order="1000000000" data-item-id="brow_zishkdvyaxoi" data-item-class="Icon Stroke" data-item-index="none" data-renderer-id="0" transform="translate(183, 15)"></g><g id="g-root-brow_zishkdvyaxoi-fill" data-item-order="1000000000" data-item-id="brow_zishkdvyaxoi" data-item-class="Icon Stroke" data-item-index="none" data-renderer-id="0" transform="translate(183, 15)"></g><g id="g-root-brow_zishkdvyaxoi-fill" data-item-order="1000000000" data-item-id="brow_zishkdvyaxoi" data-item-class="Icon Stroke" data-item-index="none" data-renderer-id="0" transform="translate(183, 15)"></g><g id="g-root-tx_nmerodet_v2yzfxvyayh4-fill" data-item-order="1000000000" data-item-id="tx_nmerodet_v2yzfxvyayh4" data-item-class="Label Stroke" data-item-index="none" data-renderer-id="0" transform="translate(141, 183)"><g id="tx_nmerodet_v2yzfxvyayh4-fill" stroke="none" fill="#484848"><g><text style="font: 20px Roboto, sans-serif; white-space: pre;" font-weight="20px" font-size="Roboto," font-family="sans-serif"><tspan x="14.09" y="33.67" dominant-baseline="ideographic">Gênero</tspan></text></g></g></g><g id="g-root-tx_nmerodet_v2yzfxvyayh2-fill" data-item-order="1000000000" data-item-id="tx_nmerodet_v2yzfxvyayh2" data-item-class="Label Stroke" data-item-index="none" data-renderer-id="0" transform="translate(156, 147)"><g id="tx_nmerodet_v2yzfxvyayh2-fill" stroke="none" fill="#484848"><g><text style="font: 20px Roboto, sans-serif; white-space: pre;" font-weight="20px" font-size="Roboto," font-family="sans-serif"><tspan x="15.26" y="33.67" dominant-baseline="ideographic">Email</tspan></text></g></g></g><g id="g-root-tx_nmerodet_v2yzfxvyaygz-fill" data-item-order="1000000000" data-item-id="tx_nmerodet_v2yzfxvyaygz" data-item-class="Label Stroke" data-item-index="none" data-renderer-id="0" transform="translate(144, 107.5003662109375)"><g id="tx_nmerodet_v2yzfxvyaygz-fill" stroke="none" fill="#484848"><g><text style="font: 20px Roboto, sans-serif; white-space: pre;" font-weight="20px" font-size="Roboto," font-family="sans-serif"><tspan x="13.5" y="33.67" dominant-baseline="ideographic">Telefone</tspan></text></g></g></g><g id="g-root-tx_email_v2yzfxvyaygw-fill" data-item-order="1000000000" data-item-id="tx_email_v2yzfxvyaygw" data-item-class="Label Stroke" data-item-index="none" data-renderer-id="0" transform="translate(168, 75)"><g id="tx_email_v2yzfxvyaygw-fill" stroke="none" fill="#484848"><g><text style="font: 20px Roboto, sans-serif; white-space: pre;" font-weight="20px" font-size="Roboto," font-family="sans-serif"><tspan x="13.1" y="33.67" dominant-baseline="ideographic">Nome</tspan></text></g></g></g><g id="g-root-tx_informae_zishkdvyaxoh-fill" data-item-order="1000000000" data-item-id="tx_informae_zishkdvyaxoh" data-item-class="Label Stroke" data-item-index="none" data-renderer-id="0" transform="translate(81, 18)"><g id="tx_informae_zishkdvyaxoh-fill" stroke="none" fill="#3bc482"><g><text style="font: 20px Roboto, sans-serif; white-space: pre;" font-weight="20px" font-size="Roboto," font-family="sans-serif"><tspan x="17.56" y="33.5" dominant-baseline="ideographic">Cadastro</tspan></text></g></g></g><g id="g-root-cu_zishkdvyaxom-fill" data-item-order="1000000002" data-item-id="cu_zishkdvyaxom" data-item-class="Curve Stroke ColorFillGray ColorStrokeGray" data-item-index="none" data-renderer-id="0" transform="translate(240, 57)"></g><g id="g-root-cu_v2yzfxvyayh0-fill" data-item-order="1000000002" data-item-id="cu_v2yzfxvyayh0" data-item-class="Curve Stroke ColorFillGray ColorStrokeGray" data-item-index="none" data-renderer-id="0" transform="translate(213, 117)"></g><g id="g-root-cu_zishkdvyaxom-fill" data-item-order="1000000002" data-item-id="cu_zishkdvyaxom" data-item-class="Curve Stroke ColorFillGray ColorStrokeGray" data-item-index="none" data-renderer-id="0" transform="translate(240, 57)"></g><g id="g-root-cu_zishkdvyaxom-fill" data-item-order="1000000002" data-item-id="cu_zishkdvyaxom" data-item-class="Curve Stroke ColorFillGray ColorStrokeGray" data-item-index="none" data-renderer-id="0" transform="translate(240, 57)"></g><g id="g-root-cu_zishkdvyaxom-fill" data-item-order="1000000002" data-item-id="cu_zishkdvyaxom" data-item-class="Curve Stroke ColorFillGray ColorStrokeGray" data-item-index="none" data-renderer-id="0" transform="translate(240, 57)"></g><g id="g-root-cu_zishkdvyaxol-fill" data-item-order="1000000002" data-item-id="cu_zishkdvyaxol" data-item-class="Curve Stroke ColorFillGray ColorStrokeGray" data-item-index="none" data-renderer-id="0" transform="translate(234, 57)"></g><g id="g-root-cu_zishkdvyaxol-fill" data-item-order="1000000002" data-item-id="cu_zishkdvyaxol" data-item-class="Curve Stroke ColorFillGray ColorStrokeGray" data-item-index="none" data-renderer-id="0" transform="translate(234, 57)"></g><g id="g-root-cu_zishkdvyaxol-fill" data-item-order="1000000002" data-item-id="cu_zishkdvyaxol" data-item-class="Curve Stroke ColorFillGray ColorStrokeGray" data-item-index="none" data-renderer-id="0" transform="translate(234, 57)"></g><g id="g-root-cu_v2yzfxvyayh3-fill" data-item-order="1000000002" data-item-id="cu_v2yzfxvyayh3" data-item-class="Curve Stroke ColorFillGray ColorStrokeGray" data-item-index="none" data-renderer-id="0" transform="translate(213, 153)"></g><g id="g-root-cu_zishkdvyaxol-fill" data-item-order="1000000002" data-item-id="cu_zishkdvyaxol" data-item-class="Curve Stroke ColorFillGray ColorStrokeGray" data-item-index="none" data-renderer-id="0" transform="translate(234, 57)"></g><g id="g-root-cu_zishkdvyaxol-fill" data-item-order="1000000002" data-item-id="cu_zishkdvyaxol" data-item-class="Curve Stroke ColorFillGray ColorStrokeGray" data-item-index="none" data-renderer-id="0" transform="translate(234, 57)"></g><g id="g-root-ro_zishkdvyaxog-stroke" data-item-order="999984448" data-item-id="ro_zishkdvyaxog" data-item-class="Shape Stroke Fill" data-item-index="none" data-renderer-id="0" transform="translate(3, 3)"><g id="ro_zishkdvyaxog-stroke" fill="none" stroke-linecap="round" stroke-linejoin="round" stroke-miterlimit="4" stroke="#3bc482" stroke-width="2"><g><path d="M 22 10L 286 10C 286 10 298 10 298 22L 298 52C 298 52 298 64 286 64L 22 64C 22 64 10 64 10 52L 10 22C 10 22 10 10 22 10"></path></g></g></g><g id="g-root-ro_zishkdvyaxog-stroke" data-item-order="999984448" data-item-id="ro_zishkdvyaxog" data-item-class="Shape Stroke Fill" data-item-index="none" data-renderer-id="0" transform="translate(3, 3)"><g id="ro_zishkdvyaxog-stroke" fill="none" stroke-linecap="round" stroke-linejoin="round" stroke-miterlimit="4" stroke="#3bc482" stroke-width="2"><g><path d="M 22 10L 286 10C 286 10 298 10 298 22L 298 52C 298 52 298 64 286 64L 22 64C 22 64 10 64 10 52L 10 22C 10 22 10 10 22 10"></path></g></g></g><g id="g-root-ro_zishkdvyaxog-stroke" data-item-order="999984448" data-item-id="ro_zishkdvyaxog" data-item-class="Shape Stroke Fill" data-item-index="none" data-renderer-id="0" transform="translate(3, 3)"><g id="ro_zishkdvyaxog-stroke" fill="none" stroke-linecap="round" stroke-linejoin="round" stroke-miterlimit="4" stroke="#3bc482" stroke-width="2"><g><path d="M 22 10L 286 10C 286 10 298 10 298 22L 298 52C 298 52 298 64 286 64L 22 64C 22 64 10 64 10 52L 10 22C 10 22 10 10 22 10"></path></g></g></g><g id="g-root-tx_informae_zishkdvyaxoh-stroke" data-item-order="1000000000" data-item-id="tx_informae_zishkdvyaxoh" data-item-class="Label Stroke" data-item-index="none" data-renderer-id="0" transform="translate(81, 18)"></g><g id="g-root-tx_informae_zishkdvyaxoh-stroke" data-item-order="1000000000" data-item-id="tx_informae_zishkdvyaxoh" data-item-class="Label Stroke" data-item-index="none" data-renderer-id="0" transform="translate(81, 18)"></g><g id="g-root-brow_zishkdvyaxoi-stroke" data-item-order="1000000000" data-item-id="brow_zishkdvyaxoi" data-item-class="Icon Stroke" data-item-index="none" data-renderer-id="0" transform="translate(183, 15)"><g id="brow_zishkdvyaxoi-stroke" fill="none" stroke-linecap="round" stroke-linejoin="round" stroke-miterlimit="4" stroke="#3bc482" stroke-width="2"><g><path d="M 39.375 12.5C 39.375 11.809644 38.815353 11.25 38.125 11.25L 11.875 11.25C 11.184644 11.25 10.625 11.809644 10.625 12.5L 10.625 32.5C 10.625 33.190353 11.184644 33.75 11.875 33.75L 30 33.75L 30 38.75L 35 33.75L 38.125 33.75C 38.815353 33.75 39.375 33.190353 39.375 32.5ZM 14.375 31.25C 14.375 28.143398 16.893398 25.625 20 25.625C 23.106602 25.625 25.625 28.143398 25.625 31.25M 16.5625 20.9375C 16.5625 22.835979 18.101522 24.375 20 24.375C 21.898479 24.375 23.4375 22.835979 23.4375 20.9375C 23.4375 19.039022 21.898479 17.5 20 17.5C 18.101522 17.5 16.5625 19.039022 16.5625 20.9375ZM 27.460001 26.23C 29.203947 25.347404 31.281042 25.43338 32.946083 26.457081C 34.611126 27.480782 35.625393 29.295433 35.625 31.25M 26.5625 20.9375C 26.5625 22.835979 28.101522 24.375 30 24.375C 31.898479 24.375 33.4375 22.835979 33.4375 20.9375C 33.4375 19.039022 31.898479 17.5 30 17.5C 28.101522 17.5 26.5625 19.039022 26.5625 20.9375Z"></path></g></g></g><g id="g-root-brow_zishkdvyaxoi-stroke" data-item-order="1000000000" data-item-id="brow_zishkdvyaxoi" data-item-class="Icon Stroke" data-item-index="none" data-renderer-id="0" transform="translate(183, 15)"><g id="brow_zishkdvyaxoi-stroke" fill="none" stroke-linecap="round" stroke-linejoin="round" stroke-miterlimit="4" stroke="#3bc482" stroke-width="2"><g><path d="M 39.375 12.5C 39.375 11.809644 38.815353 11.25 38.125 11.25L 11.875 11.25C 11.184644 11.25 10.625 11.809644 10.625 12.5L 10.625 32.5C 10.625 33.190353 11.184644 33.75 11.875 33.75L 30 33.75L 30 38.75L 35 33.75L 38.125 33.75C 38.815353 33.75 39.375 33.190353 39.375 32.5ZM 14.375 31.25C 14.375 28.143398 16.893398 25.625 20 25.625C 23.106602 25.625 25.625 28.143398 25.625 31.25M 16.5625 20.9375C 16.5625 22.835979 18.101522 24.375 20 24.375C 21.898479 24.375 23.4375 22.835979 23.4375 20.9375C 23.4375 19.039022 21.898479 17.5 20 17.5C 18.101522 17.5 16.5625 19.039022 16.5625 20.9375ZM 27.460001 26.23C 29.203947 25.347404 31.281042 25.43338 32.946083 26.457081C 34.611126 27.480782 35.625393 29.295433 35.625 31.25M 26.5625 20.9375C 26.5625 22.835979 28.101522 24.375 30 24.375C 31.898479 24.375 33.4375 22.835979 33.4375 20.9375C 33.4375 19.039022 31.898479 17.5 30 17.5C 28.101522 17.5 26.5625 19.039022 26.5625 20.9375Z"></path></g></g></g><g id="g-root-brow_zishkdvyaxoi-stroke" data-item-order="1000000000" data-item-id="brow_zishkdvyaxoi" data-item-class="Icon Stroke" data-item-index="none" data-renderer-id="0" transform="translate(183, 15)"><g id="brow_zishkdvyaxoi-stroke" fill="none" stroke-linecap="round" stroke-linejoin="round" stroke-miterlimit="4" stroke="#3bc482" stroke-width="2"><g><path d="M 39.375 12.5C 39.375 11.809644 38.815353 11.25 38.125 11.25L 11.875 11.25C 11.184644 11.25 10.625 11.809644 10.625 12.5L 10.625 32.5C 10.625 33.190353 11.184644 33.75 11.875 33.75L 30 33.75L 30 38.75L 35 33.75L 38.125 33.75C 38.815353 33.75 39.375 33.190353 39.375 32.5ZM 14.375 31.25C 14.375 28.143398 16.893398 25.625 20 25.625C 23.106602 25.625 25.625 28.143398 25.625 31.25M 16.5625 20.9375C 16.5625 22.835979 18.101522 24.375 20 24.375C 21.898479 24.375 23.4375 22.835979 23.4375 20.9375C 23.4375 19.039022 21.898479 17.5 20 17.5C 18.101522 17.5 16.5625 19.039022 16.5625 20.9375ZM 27.460001 26.23C 29.203947 25.347404 31.281042 25.43338 32.946083 26.457081C 34.611126 27.480782 35.625393 29.295433 35.625 31.25M 26.5625 20.9375C 26.5625 22.835979 28.101522 24.375 30 24.375C 31.898479 24.375 33.4375 22.835979 33.4375 20.9375C 33.4375 19.039022 31.898479 17.5 30 17.5C 28.101522 17.5 26.5625 19.039022 26.5625 20.9375Z"></path></g></g></g><g id="g-root-tx_nmerodet_v2yzfxvyayh4-stroke" data-item-order="1000000000" data-item-id="tx_nmerodet_v2yzfxvyayh4" data-item-class="Label Stroke" data-item-index="none" data-renderer-id="0" transform="translate(141, 183)"></g><g id="g-root-tx_nmerodet_v2yzfxvyayh2-stroke" data-item-order="1000000000" data-item-id="tx_nmerodet_v2yzfxvyayh2" data-item-class="Label Stroke" data-item-index="none" data-renderer-id="0" transform="translate(156, 147)"></g><g id="g-root-tx_nmerodet_v2yzfxvyaygz-stroke" data-item-order="1000000000" data-item-id="tx_nmerodet_v2yzfxvyaygz" data-item-class="Label Stroke" data-item-index="none" data-renderer-id="0" transform="translate(144, 107.5003662109375)"></g><g id="g-root-tx_email_v2yzfxvyaygw-stroke" data-item-order="1000000000" data-item-id="tx_email_v2yzfxvyaygw" data-item-class="Label Stroke" data-item-index="none" data-renderer-id="0" transform="translate(168, 75)"></g><g id="g-root-tx_informae_zishkdvyaxoh-stroke" data-item-order="1000000000" data-item-id="tx_informae_zishkdvyaxoh" data-item-class="Label Stroke" data-item-index="none" data-renderer-id="0" transform="translate(81, 18)"></g><g id="g-root-cu_zishkdvyaxom-stroke" data-item-order="1000000002" data-item-id="cu_zishkdvyaxom" data-item-class="Curve Stroke ColorFillGray ColorStrokeGray" data-item-index="none" data-renderer-id="0" transform="translate(240, 57)"><g id="cu_zishkdvyaxom-stroke" fill="none" stroke-linecap="round" stroke-linejoin="round" stroke-miterlimit="4" stroke="#888888" stroke-width="2" stroke-dasharray="5.0, 7.0"><g><path d="M 37 10L 37 25L 37 40L 23.5 40L 10 40"></path></g></g></g><g id="g-root-cu_v2yzfxvyayh0-stroke" data-item-order="1000000002" data-item-id="cu_v2yzfxvyayh0" data-item-class="Curve Stroke ColorFillGray ColorStrokeGray" data-item-index="none" data-renderer-id="0" transform="translate(213, 117)"><g id="cu_v2yzfxvyayh0-stroke" fill="none" stroke-linecap="round" stroke-linejoin="round" stroke-miterlimit="4" stroke="#888888" stroke-width="2" stroke-dasharray="5.0, 7.0"><g><path d="M 64 10L 64 15.3L 64 40C 63.999998 46.627415 58.627415 51.999998 51.999998 51.999998L 51.9 52L 10 52"></path></g></g></g><g id="g-root-cu_zishkdvyaxom-stroke" data-item-order="1000000002" data-item-id="cu_zishkdvyaxom" data-item-class="Curve Stroke ColorFillGray ColorStrokeGray" data-item-index="none" data-renderer-id="0" transform="translate(240, 57)"><g id="cu_zishkdvyaxom-stroke" fill="none" stroke-linecap="round" stroke-linejoin="round" stroke-miterlimit="4" stroke="#888888" stroke-width="2" stroke-dasharray="5.0, 7.0"><g><path d="M 37 10L 37 25L 37 40L 23.5 40L 10 40"></path></g></g></g><g id="g-root-cu_zishkdvyaxom-stroke" data-item-order="1000000002" data-item-id="cu_zishkdvyaxom" data-item-class="Curve Stroke ColorFillGray ColorStrokeGray" data-item-index="none" data-renderer-id="0" transform="translate(240, 57)"><g id="cu_zishkdvyaxom-stroke" fill="none" stroke-linecap="round" stroke-linejoin="round" stroke-miterlimit="4" stroke="#888888" stroke-width="2" stroke-dasharray="5.0, 7.0"><g><path d="M 37 10L 37 25L 37 40L 23.5 40L 10 40"></path></g></g></g><g id="g-root-cu_zishkdvyaxom-stroke" data-item-order="1000000002" data-item-id="cu_zishkdvyaxom" data-item-class="Curve Stroke ColorFillGray ColorStrokeGray" data-item-index="none" data-renderer-id="0" transform="translate(240, 57)"><g id="cu_zishkdvyaxom-stroke" fill="none" stroke-linecap="round" stroke-linejoin="round" stroke-miterlimit="4" stroke="#888888" stroke-width="2" stroke-dasharray="5.0, 7.0"><g><path d="M 37 10L 37 25L 37 40L 23.5 40L 10 40"></path></g></g></g><g id="g-root-cu_zishkdvyaxol-stroke" data-item-order="1000000002" data-item-id="cu_zishkdvyaxol" data-item-class="Curve Stroke ColorFillGray ColorStrokeGray" data-item-index="none" data-renderer-id="0" transform="translate(234, 57)"><g id="cu_zishkdvyaxol-stroke" fill="none" stroke-linecap="round" stroke-linejoin="round" stroke-miterlimit="4" stroke="#888888" stroke-width="2" stroke-dasharray="5.0, 7.0"><style>.fillAsStrokeColor-v48jqlw8239i { fill:#888888; }</style><g><path d="M 43 10L 43 17.8L 43 60.5C 42.999999 67.127415 37.627416 72.499997 30.999999 72.499997L 30.9 72.5L 10 72.5"></path><path d="M 41.5 10C 41.500001 10.828427 42.171574 11.5 43.000001 11.5C 43.828428 11.5 44.500001 10.828427 44.500001 10C 44.500001 9.171573 43.828428 8.5 43.000001 8.5C 42.171574 8.5 41.500001 9.171573 41.500001 10Z" stroke-dasharray="none" class="fillAsStrokeColor-v48jqlw8239i"></path></g></g></g><g id="g-root-cu_zishkdvyaxol-stroke" data-item-order="1000000002" data-item-id="cu_zishkdvyaxol" data-item-class="Curve Stroke ColorFillGray ColorStrokeGray" data-item-index="none" data-renderer-id="0" transform="translate(234, 57)"><g id="cu_zishkdvyaxol-stroke" fill="none" stroke-linecap="round" stroke-linejoin="round" stroke-miterlimit="4" stroke="#888888" stroke-width="2" stroke-dasharray="5.0, 7.0"><style>.fillAsStrokeColor-v48jqlw8239i { fill:#888888; }</style><g><path d="M 43 10L 43 17.8L 43 60.5C 42.999999 67.127415 37.627416 72.499997 30.999999 72.499997L 30.9 72.5L 10 72.5"></path><path d="M 41.5 10C 41.500001 10.828427 42.171574 11.5 43.000001 11.5C 43.828428 11.5 44.500001 10.828427 44.500001 10C 44.500001 9.171573 43.828428 8.5 43.000001 8.5C 42.171574 8.5 41.500001 9.171573 41.500001 10Z" stroke-dasharray="none" class="fillAsStrokeColor-v48jqlw8239i"></path></g></g></g><g id="g-root-cu_zishkdvyaxol-stroke" data-item-order="1000000002" data-item-id="cu_zishkdvyaxol" data-item-class="Curve Stroke ColorFillGray ColorStrokeGray" data-item-index="none" data-renderer-id="0" transform="translate(234, 57)"><g id="cu_zishkdvyaxol-stroke" fill="none" stroke-linecap="round" stroke-linejoin="round" stroke-miterlimit="4" stroke="#888888" stroke-width="2" stroke-dasharray="5.0, 7.0"><style>.fillAsStrokeColor-v48jqlw8239i { fill:#888888; }</style><g><path d="M 43 10L 43 17.8L 43 60.5C 42.999999 67.127415 37.627416 72.499997 30.999999 72.499997L 30.9 72.5L 10 72.5"></path><path d="M 41.5 10C 41.500001 10.828427 42.171574 11.5 43.000001 11.5C 43.828428 11.5 44.500001 10.828427 44.500001 10C 44.500001 9.171573 43.828428 8.5 43.000001 8.5C 42.171574 8.5 41.500001 9.171573 41.500001 10Z" stroke-dasharray="none" class="fillAsStrokeColor-v48jqlw8239i"></path></g></g></g><g id="g-root-cu_v2yzfxvyayh3-stroke" data-item-order="1000000002" data-item-id="cu_v2yzfxvyayh3" data-item-class="Curve Stroke ColorFillGray ColorStrokeGray" data-item-index="none" data-renderer-id="0" transform="translate(213, 153)"><g id="cu_v2yzfxvyayh3-stroke" fill="none" stroke-linecap="round" stroke-linejoin="round" stroke-miterlimit="4" stroke="#888888" stroke-width="2" stroke-dasharray="5.0, 7.0"><g><path d="M 64 10L 64 15.3L 64 40C 63.999998 46.627415 58.627415 51.999998 51.999998 51.999998L 51.9 52L 10 52"></path></g></g></g><g id="g-root-cu_zishkdvyaxol-stroke" data-item-order="1000000002" data-item-id="cu_zishkdvyaxol" data-item-class="Curve Stroke ColorFillGray ColorStrokeGray" data-item-index="none" data-renderer-id="0" transform="translate(234, 57)"><g id="cu_zishkdvyaxol-stroke" fill="none" stroke-linecap="round" stroke-linejoin="round" stroke-miterlimit="4" stroke="#888888" stroke-width="2" stroke-dasharray="5.0, 7.0"><style>.fillAsStrokeColor-v48jqlw8239i { fill:#888888; }</style><g><path d="M 43 10L 43 17.8L 43 60.5C 42.999999 67.127415 37.627416 72.499997 30.999999 72.499997L 30.9 72.5L 10 72.5"></path><path d="M 41.5 10C 41.500001 10.828427 42.171574 11.5 43.000001 11.5C 43.828428 11.5 44.500001 10.828427 44.500001 10C 44.500001 9.171573 43.828428 8.5 43.000001 8.5C 42.171574 8.5 41.500001 9.171573 41.500001 10Z" stroke-dasharray="none" class="fillAsStrokeColor-v48jqlw8239i"></path></g></g></g><g id="g-root-cu_zishkdvyaxol-stroke" data-item-order="1000000002" data-item-id="cu_zishkdvyaxol" data-item-class="Curve Stroke ColorFillGray ColorStrokeGray" data-item-index="none" data-renderer-id="0" transform="translate(234, 57)"><g id="cu_zishkdvyaxol-stroke" fill="none" stroke-linecap="round" stroke-linejoin="round" stroke-miterlimit="4" stroke="#888888" stroke-width="2" stroke-dasharray="5.0, 7.0"><style>.fillAsStrokeColor-v48jqlw8239i { fill:#888888; }</style><g><path d="M 43 10L 43 17.8L 43 60.5C 42.999999 67.127415 37.627416 72.499997 30.999999 72.499997L 30.9 72.5L 10 72.5"></path><path d="M 41.5 10C 41.500001 10.828427 42.171574 11.5 43.000001 11.5C 43.828428 11.5 44.500001 10.828427 44.500001 10C 44.500001 9.171573 43.828428 8.5 43.000001 8.5C 42.171574 8.5 41.500001 9.171573 41.500001 10Z" stroke-dasharray="none" class="fillAsStrokeColor-v48jqlw8239i"></path></g></g></g></g></g></svg>