<?xml version="1.0" encoding="utf-8" standalone="yes"?>
<!DOCTYPE svg PUBLIC "-//W3C//DTD SVG 1.1//EN" "http://www.w3.org/Graphics/SVG/1.1/DTD/svg11.dtd">
<svg width="412" height="220" viewBox="0 0 412 220" style="fill:none;stroke:none;fill-rule:evenodd;clip-rule:evenodd;stroke-linecap:round;stroke-linejoin:round;stroke-miterlimit:1.5;" version="1.1" xmlns="http://www.w3.org/2000/svg" xmlns:xlink="http://www.w3.org/1999/xlink"><style id="fontImports">@import url("https://fonts.googleapis.com/css2?family=Roboto:wght@400;700&amp;display=block");</style><g id="items" style="isolation: isolate"><g id="blend" style="mix-blend-mode:normal"><g id="g-root-ro_dl2j1pxlvvuv-fill" data-item-order="999983152" data-item-id="ro_dl2j1pxlvvuv" data-item-class="Shape Stroke Fill" data-item-index="none" data-renderer-id="0" transform="translate(35.25, 3)"><g id="ro_dl2j1pxlvvuv-fill" stroke="none" fill="#e6f9ff"><g><path d="M 22 10L 310 10C 310 10 322 10 322 22L 322 52C 322 52 322 64 310 64L 22 64C 22 64 10 64 10 52L 10 22C 10 22 10 10 22 10"></path></g></g></g><g id="g-root-ro_dl2j1pxlvvuv-fill" data-item-order="999983152" data-item-id="ro_dl2j1pxlvvuv" data-item-class="Shape Stroke Fill" data-item-index="none" data-renderer-id="0" transform="translate(35.25, 3)"><g id="ro_dl2j1pxlvvuv-fill" stroke="none" fill="#e6f9ff"><g><path d="M 22 10L 310 10C 310 10 322 10 322 22L 322 52C 322 52 322 64 310 64L 22 64C 22 64 10 64 10 52L 10 22C 10 22 10 10 22 10"></path></g></g></g><g id="g-root-ro_dl2j1pxlvvuv-fill" data-item-order="999983152" data-item-id="ro_dl2j1pxlvvuv" data-item-class="Shape Stroke Fill" data-item-index="none" data-renderer-id="0" transform="translate(35.25, 3)"><g id="ro_dl2j1pxlvvuv-fill" stroke="none" fill="#e6f9ff"><g><path d="M 22 10L 310 10C 310 10 322 10 322 22L 322 52C 322 52 322 64 310 64L 22 64C 22 64 10 64 10 52L 10 22C 10 22 10 10 22 10"></path></g></g></g><g id="g-root-bars_dl2j1pxlvvuw-fill" data-item-order="1000000000" data-item-id="bars_dl2j1pxlvvuw" data-item-class="Icon Stroke" data-item-index="none" data-renderer-id="0" transform="translate(83.25, 15)"></g><g id="g-root-bars_dl2j1pxlvvuw-fill" data-item-order="1000000000" data-item-id="bars_dl2j1pxlvvuw" data-item-class="Icon Stroke" data-item-index="none" data-renderer-id="0" transform="translate(83.25, 15)"></g><g id="g-root-tx_gnero_dl2j1pxlvvux-fill" data-item-order="1000000000" data-item-id="tx_gnero_dl2j1pxlvvux" data-item-class="Label Stroke" data-item-index="none" data-renderer-id="0" transform="translate(89.25, 30)"><g id="tx_gnero_dl2j1pxlvvux-fill" stroke="none" fill="#484848"><g><text style="font: 20px Roboto, sans-serif; white-space: pre;" font-weight="20px" font-size="Roboto," font-family="sans-serif"><tspan x="17.34" y="81.64" dominant-baseline="ideographic">Detalhar sua rotina e condições </tspan><tspan x="18.32" y="105.64" dominant-baseline="ideographic">para preparar o especialista e o </tspan><tspan x="54" y="129.63" dominant-baseline="ideographic">treinamento do modelo</tspan></text></g></g></g><g id="g-root-tx_informae_dl2j1pxlvvuy-fill" data-item-order="1000000000" data-item-id="tx_informae_dl2j1pxlvvuy" data-item-class="Label Stroke" data-item-index="none" data-renderer-id="0" transform="translate(119.25, 18)"><g id="tx_informae_dl2j1pxlvvuy-fill" stroke="none" fill="#17b0e3"><g><text style="font: 20px Roboto, sans-serif; white-space: pre;" font-weight="20px" font-size="Roboto," font-family="sans-serif"><tspan x="14.85" y="33.64" dominant-baseline="ideographic">Rotinas de cuidado</tspan></text></g></g></g><g id="g-root-tx_informae_dl2j1pxlvvuy-fill" data-item-order="1000000000" data-item-id="tx_informae_dl2j1pxlvvuy" data-item-class="Label Stroke" data-item-index="none" data-renderer-id="0" transform="translate(119.25, 18)"><g id="tx_informae_dl2j1pxlvvuy-fill" stroke="none" fill="#17b0e3"><g><text style="font: 20px Roboto, sans-serif; white-space: pre;" font-weight="20px" font-size="Roboto," font-family="sans-serif"><tspan x="14.85" y="33.64" dominant-baseline="ideographic">Rotinas de cuidado</tspan></text></g></g></g><g id="g-root-tx_informae_dl2j1pxlvvuy-fill" data-item-order="1000000000" data-item-id="tx_informae_dl2j1pxlvvuy" data-item-class="Label Stroke" data-item-index="none" data-renderer-id="0" transform="translate(119.25, 18)"><g id="tx_informae_dl2j1pxlvvuy-fill" stroke="none" fill="#17b0e3"><g><text style="font: 20px Roboto, sans-serif; white-space: pre;" font-weight="20px" font-size="Roboto," font-family="sans-serif"><tspan x="14.85" y="33.64" dominant-baseline="ideographic">Rotinas de cuidado</tspan></text></g></g></g><g id="g-root-cu_dl2j1pxlvvuz-fill" data-item-order="1000000000" data-item-id="cu_dl2j1pxlvvuz" data-item-class="Curve Stroke ColorFillGray ColorStrokeGray" data-item-index="none" data-renderer-id="0" transform="translate(3, 57)"></g><g id="g-root-cu_dl2j1pxlvvuz-fill" data-item-order="1000000000" data-item-id="cu_dl2j1pxlvvuz" data-item-class="Curve Stroke ColorFillGray ColorStrokeGray" data-item-index="none" data-renderer-id="0" transform="translate(3, 57)"></g><g id="g-root-cu_dl2j1pxlvvuz-fill" data-item-order="1000000000" data-item-id="cu_dl2j1pxlvvuz" data-item-class="Curve Stroke ColorFillGray ColorStrokeGray" data-item-index="none" data-renderer-id="0" transform="translate(3, 57)"></g><g id="g-root-cu_dl2j1pxlvvuz-fill" data-item-order="1000000000" data-item-id="cu_dl2j1pxlvvuz" data-item-class="Curve Stroke ColorFillGray ColorStrokeGray" data-item-index="none" data-renderer-id="0" transform="translate(3, 57)"></g><g id="g-root-cu_dl2j1pxlvvuz-fill" data-item-order="1000000000" data-item-id="cu_dl2j1pxlvvuz" data-item-class="Curve Stroke ColorFillGray ColorStrokeGray" data-item-index="none" data-renderer-id="0" transform="translate(3, 57)"></g><g id="g-root-bars_dl2j1pxlvvuw-fill" data-item-order="1000000000" data-item-id="bars_dl2j1pxlvvuw" data-item-class="Icon Stroke" data-item-index="none" data-renderer-id="0" transform="translate(83.25, 15)"></g><g id="g-root-ro_dl2j1pxlvvuv-stroke" data-item-order="999983152" data-item-id="ro_dl2j1pxlvvuv" data-item-class="Shape Stroke Fill" data-item-index="none" data-renderer-id="0" transform="translate(35.25, 3)"><g id="ro_dl2j1pxlvvuv-stroke" fill="none" stroke-linecap="round" stroke-linejoin="round" stroke-miterlimit="4" stroke="#17b0e3" stroke-width="2"><g><path d="M 22 10L 310 10C 310 10 322 10 322 22L 322 52C 322 52 322 64 310 64L 22 64C 22 64 10 64 10 52L 10 22C 10 22 10 10 22 10"></path></g></g></g><g id="g-root-ro_dl2j1pxlvvuv-stroke" data-item-order="999983152" data-item-id="ro_dl2j1pxlvvuv" data-item-class="Shape Stroke Fill" data-item-index="none" data-renderer-id="0" transform="translate(35.25, 3)"><g id="ro_dl2j1pxlvvuv-stroke" fill="none" stroke-linecap="round" stroke-linejoin="round" stroke-miterlimit="4" stroke="#17b0e3" stroke-width="2"><g><path d="M 22 10L 310 10C 310 10 322 10 322 22L 322 52C 322 52 322 64 310 64L 22 64C 22 64 10 64 10 52L 10 22C 10 22 10 10 22 10"></path></g></g></g><g id="g-root-ro_dl2j1pxlvvuv-stroke" data-item-order="999983152" data-item-id="ro_dl2j1pxlvvuv" data-item-class="Shape Stroke Fill" data-item-index="none" data-renderer-id="0" transform="translate(35.25, 3)"><g id="ro_dl2j1pxlvvuv-stroke" fill="none" stroke-linecap="round" stroke-linejoin="round" stroke-miterlimit="4" stroke="#17b0e3" stroke-width="2"><g><path d="M 22 10L 310 10C 310 10 322 10 322 22L 322 52C 322 52 322 64 310 64L 22 64C 22 64 10 64 10 52L 10 22C 10 22 10 10 22 10"></path></g></g></g><g id="g-root-bars_dl2j1pxlvvuw-stroke" data-item-order="1000000000" data-item-id="bars_dl2j1pxlvvuw" data-item-class="Icon Stroke" data-item-index="none" data-renderer-id="0" transform="translate(83.25, 15)"><g id="bars_dl2j1pxlvvuw-stroke" fill="none" stroke-linecap="round" stroke-linejoin="round" stroke-miterlimit="4" stroke="#17b0e3" stroke-width="2"><g><path d="M 10.55125 34.375L 39.30125 34.375M 15.55125 34.375L 15.55125 28.75C 15.55125 28.404823 15.271428 28.125 14.92625 28.125L 12.42625 28.125C 12.081072 28.125 11.80125 28.404823 11.80125 28.75L 11.80125 34.375M 23.05125 34.375L 23.05125 22.5C 23.05125 22.154823 22.771427 21.875 22.42625 21.875L 19.92625 21.875C 19.581072 21.875 19.30125 22.154823 19.30125 22.5L 19.30125 34.375M 30.55125 34.375L 30.55125 25C 30.55125 24.654823 30.271427 24.375 29.92625 24.375L 27.42625 24.375C 27.081072 24.375 26.80125 24.654823 26.80125 25L 26.80125 34.375M 38.05125 34.375L 38.05125 16.25C 38.05125 15.904821 37.771427 15.625 37.42625 15.625L 34.92625 15.625C 34.581074 15.625 34.30125 15.904821 34.30125 16.25L 34.30125 34.375"></path></g></g></g><g id="g-root-bars_dl2j1pxlvvuw-stroke" data-item-order="1000000000" data-item-id="bars_dl2j1pxlvvuw" data-item-class="Icon Stroke" data-item-index="none" data-renderer-id="0" transform="translate(83.25, 15)"><g id="bars_dl2j1pxlvvuw-stroke" fill="none" stroke-linecap="round" stroke-linejoin="round" stroke-miterlimit="4" stroke="#17b0e3" stroke-width="2"><g><path d="M 10.55125 34.375L 39.30125 34.375M 15.55125 34.375L 15.55125 28.75C 15.55125 28.404823 15.271428 28.125 14.92625 28.125L 12.42625 28.125C 12.081072 28.125 11.80125 28.404823 11.80125 28.75L 11.80125 34.375M 23.05125 34.375L 23.05125 22.5C 23.05125 22.154823 22.771427 21.875 22.42625 21.875L 19.92625 21.875C 19.581072 21.875 19.30125 22.154823 19.30125 22.5L 19.30125 34.375M 30.55125 34.375L 30.55125 25C 30.55125 24.654823 30.271427 24.375 29.92625 24.375L 27.42625 24.375C 27.081072 24.375 26.80125 24.654823 26.80125 25L 26.80125 34.375M 38.05125 34.375L 38.05125 16.25C 38.05125 15.904821 37.771427 15.625 37.42625 15.625L 34.92625 15.625C 34.581074 15.625 34.30125 15.904821 34.30125 16.25L 34.30125 34.375"></path></g></g></g><g id="g-root-tx_gnero_dl2j1pxlvvux-stroke" data-item-order="1000000000" data-item-id="tx_gnero_dl2j1pxlvvux" data-item-class="Label Stroke" data-item-index="none" data-renderer-id="0" transform="translate(89.25, 30)"></g><g id="g-root-tx_informae_dl2j1pxlvvuy-stroke" data-item-order="1000000000" data-item-id="tx_informae_dl2j1pxlvvuy" data-item-class="Label Stroke" data-item-index="none" data-renderer-id="0" transform="translate(119.25, 18)"></g><g id="g-root-tx_informae_dl2j1pxlvvuy-stroke" data-item-order="1000000000" data-item-id="tx_informae_dl2j1pxlvvuy" data-item-class="Label Stroke" data-item-index="none" data-renderer-id="0" transform="translate(119.25, 18)"></g><g id="g-root-tx_informae_dl2j1pxlvvuy-stroke" data-item-order="1000000000" data-item-id="tx_informae_dl2j1pxlvvuy" data-item-class="Label Stroke" data-item-index="none" data-renderer-id="0" transform="translate(119.25, 18)"></g><g id="g-root-cu_dl2j1pxlvvuz-stroke" data-item-order="1000000000" data-item-id="cu_dl2j1pxlvvuz" data-item-class="Curve Stroke ColorFillGray ColorStrokeGray" data-item-index="none" data-renderer-id="0" transform="translate(3, 57)"><g id="cu_dl2j1pxlvvuz-stroke" fill="none" stroke-linecap="round" stroke-linejoin="round" stroke-miterlimit="4" stroke="#888888" stroke-width="2" stroke-dasharray="5.0, 7.0"><g><path d="M 66.3 10L 66.3 11.5L 66.3 11.6C 66.30013 14.375666 65.190702 17.036215 63.218642 18.989493C 61.246582 20.942772 58.575538 22.02669 55.800001 22L 55.8 22L 22 22C 15.372583 22 9.999999 27.372583 9.999999 34.000001L 10 34.1L 10 55C 10.000001 61.627416 15.372584 66.999999 22.000001 66.999998L 22.1 67L 71.3 67"></path></g></g></g><g id="g-root-cu_dl2j1pxlvvuz-stroke" data-item-order="1000000000" data-item-id="cu_dl2j1pxlvvuz" data-item-class="Curve Stroke ColorFillGray ColorStrokeGray" data-item-index="none" data-renderer-id="0" transform="translate(3, 57)"><g id="cu_dl2j1pxlvvuz-stroke" fill="none" stroke-linecap="round" stroke-linejoin="round" stroke-miterlimit="4" stroke="#888888" stroke-width="2" stroke-dasharray="5.0, 7.0"><g><path d="M 66.3 10L 66.3 11.5L 66.3 11.6C 66.30013 14.375666 65.190702 17.036215 63.218642 18.989493C 61.246582 20.942772 58.575538 22.02669 55.800001 22L 55.8 22L 22 22C 15.372583 22 9.999999 27.372583 9.999999 34.000001L 10 34.1L 10 55C 10.000001 61.627416 15.372584 66.999999 22.000001 66.999998L 22.1 67L 71.3 67"></path></g></g></g><g id="g-root-cu_dl2j1pxlvvuz-stroke" data-item-order="1000000000" data-item-id="cu_dl2j1pxlvvuz" data-item-class="Curve Stroke ColorFillGray ColorStrokeGray" data-item-index="none" data-renderer-id="0" transform="translate(3, 57)"><g id="cu_dl2j1pxlvvuz-stroke" fill="none" stroke-linecap="round" stroke-linejoin="round" stroke-miterlimit="4" stroke="#888888" stroke-width="2" stroke-dasharray="5.0, 7.0"><g><path d="M 66.3 10L 66.3 11.5L 66.3 11.6C 66.30013 14.375666 65.190702 17.036215 63.218642 18.989493C 61.246582 20.942772 58.575538 22.02669 55.800001 22L 55.8 22L 22 22C 15.372583 22 9.999999 27.372583 9.999999 34.000001L 10 34.1L 10 55C 10.000001 61.627416 15.372584 66.999999 22.000001 66.999998L 22.1 67L 71.3 67"></path></g></g></g><g id="g-root-cu_dl2j1pxlvvuz-stroke" data-item-order="1000000000" data-item-id="cu_dl2j1pxlvvuz" data-item-class="Curve Stroke ColorFillGray ColorStrokeGray" data-item-index="none" data-renderer-id="0" transform="translate(3, 57)"><g id="cu_dl2j1pxlvvuz-stroke" fill="none" stroke-linecap="round" stroke-linejoin="round" stroke-miterlimit="4" stroke="#888888" stroke-width="2" stroke-dasharray="5.0, 7.0"><g><path d="M 66.3 10L 66.3 11.5L 66.3 11.6C 66.30013 14.375666 65.190702 17.036215 63.218642 18.989493C 61.246582 20.942772 58.575538 22.02669 55.800001 22L 55.8 22L 22 22C 15.372583 22 9.999999 27.372583 9.999999 34.000001L 10 34.1L 10 55C 10.000001 61.627416 15.372584 66.999999 22.000001 66.999998L 22.1 67L 71.3 67"></path></g></g></g><g id="g-root-cu_dl2j1pxlvvuz-stroke" data-item-order="1000000000" data-item-id="cu_dl2j1pxlvvuz" data-item-class="Curve Stroke ColorFillGray ColorStrokeGray" data-item-index="none" data-renderer-id="0" transform="translate(3, 57)"><g id="cu_dl2j1pxlvvuz-stroke" fill="none" stroke-linecap="round" stroke-linejoin="round" stroke-miterlimit="4" stroke="#888888" stroke-width="2" stroke-dasharray="5.0, 7.0"><g><path d="M 66.3 10L 66.3 11.5L 66.3 11.6C 66.30013 14.375666 65.190702 17.036215 63.218642 18.989493C 61.246582 20.942772 58.575538 22.02669 55.800001 22L 55.8 22L 22 22C 15.372583 22 9.999999 27.372583 9.999999 34.000001L 10 34.1L 10 55C 10.000001 61.627416 15.372584 66.999999 22.000001 66.999998L 22.1 67L 71.3 67"></path></g></g></g><g id="g-root-bars_dl2j1pxlvvuw-stroke" data-item-order="1000000000" data-item-id="bars_dl2j1pxlvvuw" data-item-class="Icon Stroke" data-item-index="none" data-renderer-id="0" transform="translate(83.25, 15)"><g id="bars_dl2j1pxlvvuw-stroke" fill="none" stroke-linecap="round" stroke-linejoin="round" stroke-miterlimit="4" stroke="#17b0e3" stroke-width="2"><g><path d="M 10.55125 34.375L 39.30125 34.375M 15.55125 34.375L 15.55125 28.75C 15.55125 28.404823 15.271428 28.125 14.92625 28.125L 12.42625 28.125C 12.081072 28.125 11.80125 28.404823 11.80125 28.75L 11.80125 34.375M 23.05125 34.375L 23.05125 22.5C 23.05125 22.154823 22.771427 21.875 22.42625 21.875L 19.92625 21.875C 19.581072 21.875 19.30125 22.154823 19.30125 22.5L 19.30125 34.375M 30.55125 34.375L 30.55125 25C 30.55125 24.654823 30.271427 24.375 29.92625 24.375L 27.42625 24.375C 27.081072 24.375 26.80125 24.654823 26.80125 25L 26.80125 34.375M 38.05125 34.375L 38.05125 16.25C 38.05125 15.904821 37.771427 15.625 37.42625 15.625L 34.92625 15.625C 34.581074 15.625 34.30125 15.904821 34.30125 16.25L 34.30125 34.375"></path></g></g></g></g></g></svg>