<?xml version="1.0" encoding="utf-8" standalone="yes"?>
<!DOCTYPE svg PUBLIC "-//W3C//DTD SVG 1.1//EN" "http://www.w3.org/Graphics/SVG/1.1/DTD/svg11.dtd">
<svg width="290" height="236" viewBox="0 0 290 236" style="fill:none;stroke:none;fill-rule:evenodd;clip-rule:evenodd;stroke-linecap:round;stroke-linejoin:round;stroke-miterlimit:1.5;" version="1.1" xmlns="http://www.w3.org/2000/svg" xmlns:xlink="http://www.w3.org/1999/xlink"><style id="fontImports">@import url("https://fonts.googleapis.com/css2?family=Roboto:wght@400;700&amp;display=block");</style><g id="items" style="isolation: isolate"><g id="blend" style="mix-blend-mode:normal"><g id="g-root-ro_hx59t9yq42z2-fill" data-item-order="999970768" data-item-id="ro_hx59t9yq42z2" data-item-class="Shape Stroke Fill" data-item-index="none" data-renderer-id="0" transform="translate(51, 3)"><g id="ro_hx59t9yq42z2-fill" stroke="none" fill="#f0f0f0"><g><path d="M 34 10L 154 10C 154 10 178 10 178 34L 178 160C 178 160 178 184 154 184L 34 184C 34 184 10 184 10 160L 10 34C 10 34 10 10 34 10"></path></g></g></g><g id="g-root-ro_hx59t9yq42z2-fill" data-item-order="999970768" data-item-id="ro_hx59t9yq42z2" data-item-class="Shape Stroke Fill" data-item-index="none" data-renderer-id="0" transform="translate(51, 3)"><g id="ro_hx59t9yq42z2-fill" stroke="none" fill="#f0f0f0"><g><path d="M 34 10L 154 10C 154 10 178 10 178 34L 178 160C 178 160 178 184 154 184L 34 184C 34 184 10 184 10 160L 10 34C 10 34 10 10 34 10"></path></g></g></g><g id="g-root-ro_hx59t9yq42z2-fill" data-item-order="999970768" data-item-id="ro_hx59t9yq42z2" data-item-class="Shape Stroke Fill" data-item-index="none" data-renderer-id="0" transform="translate(51, 3)"><g id="ro_hx59t9yq42z2-fill" stroke="none" fill="#f0f0f0"><g><path d="M 34 10L 154 10C 154 10 178 10 178 34L 178 160C 178 160 178 184 154 184L 34 184C 34 184 10 184 10 160L 10 34C 10 34 10 10 34 10"></path></g></g></g><g id="g-root-cu_hx59t9yq42z3-fill" data-item-order="1000000000" data-item-id="cu_hx59t9yq42z3" data-item-class="Curve Stroke ColorFillGray ColorStrokeGray" data-item-index="none" data-renderer-id="0" transform="translate(3, 18)"></g><g id="g-root-cu_hx59t9yq42z3-fill" data-item-order="1000000000" data-item-id="cu_hx59t9yq42z3" data-item-class="Curve Stroke ColorFillGray ColorStrokeGray" data-item-index="none" data-renderer-id="0" transform="translate(3, 18)"></g><g id="g-root-cu_hx59t9yq42z3-fill" data-item-order="1000000000" data-item-id="cu_hx59t9yq42z3" data-item-class="Curve Stroke ColorFillGray ColorStrokeGray" data-item-index="none" data-renderer-id="0" transform="translate(3, 18)"></g><g id="g-root-circ_mcyrxpyq42yp-fill" data-item-order="1000000000" data-item-id="circ_mcyrxpyq42yp" data-item-class="Icon Stroke" data-item-index="none" data-renderer-id="0" transform="translate(111, 27)"></g><g id="g-root-circ_mcyrxpyq42yp-fill" data-item-order="1000000000" data-item-id="circ_mcyrxpyq42yp" data-item-class="Icon Stroke" data-item-index="none" data-renderer-id="0" transform="translate(111, 27)"></g><g id="g-root-circ_mcyrxpyq42yp-fill" data-item-order="1000000000" data-item-id="circ_mcyrxpyq42yp" data-item-class="Icon Stroke" data-item-index="none" data-renderer-id="0" transform="translate(111, 27)"></g><g id="g-root-cu_dhbrotyq43re-fill" data-item-order="1000000000" data-item-id="cu_dhbrotyq43re" data-item-class="Curve Stroke ColorFillGray ColorStrokeGray" data-item-index="none" data-renderer-id="0" transform="translate(219, 18)"></g><g id="g-root-cu_dhbrotyq43re-fill" data-item-order="1000000000" data-item-id="cu_dhbrotyq43re" data-item-class="Curve Stroke ColorFillGray ColorStrokeGray" data-item-index="none" data-renderer-id="0" transform="translate(219, 18)"></g><g id="g-root-cu_dhbrotyq43re-fill" data-item-order="1000000000" data-item-id="cu_dhbrotyq43re" data-item-class="Curve Stroke ColorFillGray ColorStrokeGray" data-item-index="none" data-renderer-id="0" transform="translate(219, 18)"></g><g id="g-root-cu_dhbrotyq43re-fill" data-item-order="1000000000" data-item-id="cu_dhbrotyq43re" data-item-class="Curve Stroke ColorFillGray ColorStrokeGray" data-item-index="none" data-renderer-id="0" transform="translate(219, 18)"></g><g id="g-root-tx_detalhes_dhbrotyq43ri-fill" data-item-order="1000000000" data-item-id="tx_detalhes_dhbrotyq43ri" data-item-class="Label Stroke" data-item-index="none" data-renderer-id="0" transform="translate(75, 81)"><g id="tx_detalhes_dhbrotyq43ri-fill" stroke="none" fill="#484848"><g><text style="font: 20px Roboto, sans-serif; white-space: pre;" font-weight="20px" font-size="Roboto," font-family="sans-serif"><tspan x="15.16" y="33.5" dominant-baseline="ideographic">Detalhes de </tspan><tspan x="16.8" y="57.5" dominant-baseline="ideographic">Registro do </tspan><tspan x="33.42" y="81.5" dominant-baseline="ideographic">Usuário</tspan></text></g></g></g><g id="g-root-tx_detalhes_dhbrotyq43ri-fill" data-item-order="1000000000" data-item-id="tx_detalhes_dhbrotyq43ri" data-item-class="Label Stroke" data-item-index="none" data-renderer-id="0" transform="translate(75, 81)"><g id="tx_detalhes_dhbrotyq43ri-fill" stroke="none" fill="#484848"><g><text style="font: 20px Roboto, sans-serif; white-space: pre;" font-weight="20px" font-size="Roboto," font-family="sans-serif"><tspan x="15.16" y="33.5" dominant-baseline="ideographic">Detalhes de </tspan><tspan x="16.8" y="57.5" dominant-baseline="ideographic">Registro do </tspan><tspan x="33.42" y="81.5" dominant-baseline="ideographic">Usuário</tspan></text></g></g></g><g id="g-root-cu_dhbrotyq43rj-fill" data-item-order="1000000000" data-item-id="cu_dhbrotyq43rj" data-item-class="Curve Stroke ColorFillGray ColorStrokeGray" data-item-index="none" data-renderer-id="0" transform="translate(135, 177)"></g><g id="g-root-cu_dhbrotyq43rj-fill" data-item-order="1000000000" data-item-id="cu_dhbrotyq43rj" data-item-class="Curve Stroke ColorFillGray ColorStrokeGray" data-item-index="none" data-renderer-id="0" transform="translate(135, 177)"></g><g id="g-root-cu_dhbrotyq43rj-fill" data-item-order="1000000000" data-item-id="cu_dhbrotyq43rj" data-item-class="Curve Stroke ColorFillGray ColorStrokeGray" data-item-index="none" data-renderer-id="0" transform="translate(135, 177)"></g><g id="g-root-cu_dhbrotyq43rj-fill" data-item-order="1000000000" data-item-id="cu_dhbrotyq43rj" data-item-class="Curve Stroke ColorFillGray ColorStrokeGray" data-item-index="none" data-renderer-id="0" transform="translate(135, 177)"></g><g id="g-root-cu_hx59t9yq42z3-fill" data-item-order="1000000000" data-item-id="cu_hx59t9yq42z3" data-item-class="Curve Stroke ColorFillGray ColorStrokeGray" data-item-index="none" data-renderer-id="0" transform="translate(3, 18)"></g><g id="g-root-tx_detalhes_dhbrotyq43ri-fill" data-item-order="1000000000" data-item-id="tx_detalhes_dhbrotyq43ri" data-item-class="Label Stroke" data-item-index="none" data-renderer-id="0" transform="translate(75, 81)"><g id="tx_detalhes_dhbrotyq43ri-fill" stroke="none" fill="#484848"><g><text style="font: 20px Roboto, sans-serif; white-space: pre;" font-weight="20px" font-size="Roboto," font-family="sans-serif"><tspan x="15.16" y="33.5" dominant-baseline="ideographic">Detalhes de </tspan><tspan x="16.8" y="57.5" dominant-baseline="ideographic">Registro do </tspan><tspan x="33.42" y="81.5" dominant-baseline="ideographic">Usuário</tspan></text></g></g></g><g id="g-root-ro_hx59t9yq42z2-stroke" data-item-order="999970768" data-item-id="ro_hx59t9yq42z2" data-item-class="Shape Stroke Fill" data-item-index="none" data-renderer-id="0" transform="translate(51, 3)"><g id="ro_hx59t9yq42z2-stroke" fill="none" stroke-linecap="round" stroke-linejoin="round" stroke-miterlimit="4" stroke="#484848" stroke-width="2"><g><path d="M 34 10L 154 10C 154 10 178 10 178 34L 178 160C 178 160 178 184 154 184L 34 184C 34 184 10 184 10 160L 10 34C 10 34 10 10 34 10"></path></g></g></g><g id="g-root-ro_hx59t9yq42z2-stroke" data-item-order="999970768" data-item-id="ro_hx59t9yq42z2" data-item-class="Shape Stroke Fill" data-item-index="none" data-renderer-id="0" transform="translate(51, 3)"><g id="ro_hx59t9yq42z2-stroke" fill="none" stroke-linecap="round" stroke-linejoin="round" stroke-miterlimit="4" stroke="#484848" stroke-width="2"><g><path d="M 34 10L 154 10C 154 10 178 10 178 34L 178 160C 178 160 178 184 154 184L 34 184C 34 184 10 184 10 160L 10 34C 10 34 10 10 34 10"></path></g></g></g><g id="g-root-ro_hx59t9yq42z2-stroke" data-item-order="999970768" data-item-id="ro_hx59t9yq42z2" data-item-class="Shape Stroke Fill" data-item-index="none" data-renderer-id="0" transform="translate(51, 3)"><g id="ro_hx59t9yq42z2-stroke" fill="none" stroke-linecap="round" stroke-linejoin="round" stroke-miterlimit="4" stroke="#484848" stroke-width="2"><g><path d="M 34 10L 154 10C 154 10 178 10 178 34L 178 160C 178 160 178 184 154 184L 34 184C 34 184 10 184 10 160L 10 34C 10 34 10 10 34 10"></path></g></g></g><g id="g-root-cu_hx59t9yq42z3-stroke" data-item-order="1000000000" data-item-id="cu_hx59t9yq42z3" data-item-class="Curve Stroke ColorFillGray ColorStrokeGray" data-item-index="none" data-renderer-id="0" transform="translate(3, 18)"><g id="cu_hx59t9yq42z3-stroke" fill="none" stroke-linecap="round" stroke-linejoin="round" stroke-miterlimit="4" stroke="#888888" stroke-width="2" stroke-dasharray="5.0, 7.0"><g><path d="M 58 53L 55 53L 54.9 53C 43.357252 53.000001 34.000002 43.642752 34.000002 32.1L 34 32L 34 30.9C 33.999998 19.357248 24.64275 10 13.1 10L 13 10L 10 10"></path></g></g></g><g id="g-root-cu_hx59t9yq42z3-stroke" data-item-order="1000000000" data-item-id="cu_hx59t9yq42z3" data-item-class="Curve Stroke ColorFillGray ColorStrokeGray" data-item-index="none" data-renderer-id="0" transform="translate(3, 18)"><g id="cu_hx59t9yq42z3-stroke" fill="none" stroke-linecap="round" stroke-linejoin="round" stroke-miterlimit="4" stroke="#888888" stroke-width="2" stroke-dasharray="5.0, 7.0"><g><path d="M 58 53L 55 53L 54.9 53C 43.357252 53.000001 34.000002 43.642752 34.000002 32.1L 34 32L 34 30.9C 33.999998 19.357248 24.64275 10 13.1 10L 13 10L 10 10"></path></g></g></g><g id="g-root-cu_hx59t9yq42z3-stroke" data-item-order="1000000000" data-item-id="cu_hx59t9yq42z3" data-item-class="Curve Stroke ColorFillGray ColorStrokeGray" data-item-index="none" data-renderer-id="0" transform="translate(3, 18)"><g id="cu_hx59t9yq42z3-stroke" fill="none" stroke-linecap="round" stroke-linejoin="round" stroke-miterlimit="4" stroke="#888888" stroke-width="2" stroke-dasharray="5.0, 7.0"><g><path d="M 58 53L 55 53L 54.9 53C 43.357252 53.000001 34.000002 43.642752 34.000002 32.1L 34 32L 34 30.9C 33.999998 19.357248 24.64275 10 13.1 10L 13 10L 10 10"></path></g></g></g><g id="g-root-circ_mcyrxpyq42yp-stroke" data-item-order="1000000000" data-item-id="circ_mcyrxpyq42yp" data-item-class="Icon Stroke" data-item-index="none" data-renderer-id="0" transform="translate(111, 27)"><g id="circ_mcyrxpyq42yp-stroke" fill="none" stroke-linecap="round" stroke-linejoin="round" stroke-miterlimit="4" stroke="#484848" stroke-width="2"><g><path d="M 11.714286 21.142857C 11.714286 26.350113 15.935601 30.571428 21.142857 30.571428C 26.350113 30.571428 30.571428 26.350113 30.571428 21.142857C 30.571428 15.935601 26.350113 11.714286 21.142857 11.714286C 15.935601 11.714286 11.714286 15.935601 11.714286 21.142857M 37.428574 21.142857C 37.428574 26.350113 41.649887 30.571428 46.857143 30.571428C 52.0644 30.571428 56.285713 26.350113 56.285713 21.142857C 56.285713 15.935601 52.0644 11.714286 46.857143 11.714286C 41.649887 11.714286 37.428574 15.935601 37.428574 21.142857M 11.714286 46.857143C 11.714286 52.0644 15.935601 56.285713 21.142857 56.285713C 26.350113 56.285713 30.571428 52.0644 30.571428 46.857143C 30.571428 41.649887 26.350113 37.428574 21.142857 37.428574C 15.935601 37.428574 11.714286 41.649887 11.714286 46.857143M 37.428574 46.857143C 37.428574 52.0644 41.649887 56.285713 46.857143 56.285713C 52.0644 56.285713 56.285713 52.0644 56.285713 46.857143C 56.285713 41.649887 52.0644 37.428574 46.857143 37.428574C 41.649887 37.428574 37.428574 41.649887 37.428574 46.857143"></path></g></g></g><g id="g-root-circ_mcyrxpyq42yp-stroke" data-item-order="1000000000" data-item-id="circ_mcyrxpyq42yp" data-item-class="Icon Stroke" data-item-index="none" data-renderer-id="0" transform="translate(111, 27)"><g id="circ_mcyrxpyq42yp-stroke" fill="none" stroke-linecap="round" stroke-linejoin="round" stroke-miterlimit="4" stroke="#484848" stroke-width="2"><g><path d="M 11.714286 21.142857C 11.714286 26.350113 15.935601 30.571428 21.142857 30.571428C 26.350113 30.571428 30.571428 26.350113 30.571428 21.142857C 30.571428 15.935601 26.350113 11.714286 21.142857 11.714286C 15.935601 11.714286 11.714286 15.935601 11.714286 21.142857M 37.428574 21.142857C 37.428574 26.350113 41.649887 30.571428 46.857143 30.571428C 52.0644 30.571428 56.285713 26.350113 56.285713 21.142857C 56.285713 15.935601 52.0644 11.714286 46.857143 11.714286C 41.649887 11.714286 37.428574 15.935601 37.428574 21.142857M 11.714286 46.857143C 11.714286 52.0644 15.935601 56.285713 21.142857 56.285713C 26.350113 56.285713 30.571428 52.0644 30.571428 46.857143C 30.571428 41.649887 26.350113 37.428574 21.142857 37.428574C 15.935601 37.428574 11.714286 41.649887 11.714286 46.857143M 37.428574 46.857143C 37.428574 52.0644 41.649887 56.285713 46.857143 56.285713C 52.0644 56.285713 56.285713 52.0644 56.285713 46.857143C 56.285713 41.649887 52.0644 37.428574 46.857143 37.428574C 41.649887 37.428574 37.428574 41.649887 37.428574 46.857143"></path></g></g></g><g id="g-root-circ_mcyrxpyq42yp-stroke" data-item-order="1000000000" data-item-id="circ_mcyrxpyq42yp" data-item-class="Icon Stroke" data-item-index="none" data-renderer-id="0" transform="translate(111, 27)"><g id="circ_mcyrxpyq42yp-stroke" fill="none" stroke-linecap="round" stroke-linejoin="round" stroke-miterlimit="4" stroke="#484848" stroke-width="2"><g><path d="M 11.714286 21.142857C 11.714286 26.350113 15.935601 30.571428 21.142857 30.571428C 26.350113 30.571428 30.571428 26.350113 30.571428 21.142857C 30.571428 15.935601 26.350113 11.714286 21.142857 11.714286C 15.935601 11.714286 11.714286 15.935601 11.714286 21.142857M 37.428574 21.142857C 37.428574 26.350113 41.649887 30.571428 46.857143 30.571428C 52.0644 30.571428 56.285713 26.350113 56.285713 21.142857C 56.285713 15.935601 52.0644 11.714286 46.857143 11.714286C 41.649887 11.714286 37.428574 15.935601 37.428574 21.142857M 11.714286 46.857143C 11.714286 52.0644 15.935601 56.285713 21.142857 56.285713C 26.350113 56.285713 30.571428 52.0644 30.571428 46.857143C 30.571428 41.649887 26.350113 37.428574 21.142857 37.428574C 15.935601 37.428574 11.714286 41.649887 11.714286 46.857143M 37.428574 46.857143C 37.428574 52.0644 41.649887 56.285713 46.857143 56.285713C 52.0644 56.285713 56.285713 52.0644 56.285713 46.857143C 56.285713 41.649887 52.0644 37.428574 46.857143 37.428574C 41.649887 37.428574 37.428574 41.649887 37.428574 46.857143"></path></g></g></g><g id="g-root-cu_dhbrotyq43re-stroke" data-item-order="1000000000" data-item-id="cu_dhbrotyq43re" data-item-class="Curve Stroke ColorFillGray ColorStrokeGray" data-item-index="none" data-renderer-id="0" transform="translate(219, 18)"><g id="cu_dhbrotyq43re-stroke" fill="none" stroke-linecap="round" stroke-linejoin="round" stroke-miterlimit="4" stroke="#888888" stroke-width="2" stroke-dasharray="5.0, 7.0"><g><path d="M 10 53L 13 53L 13.1 53C 24.642753 52.999998 34.000001 43.642749 34 32.099998L 34 32L 34 30.9C 33.999999 19.357249 43.357248 10.000001 54.899999 10.000002L 55 10L 58 10"></path></g></g></g><g id="g-root-cu_dhbrotyq43re-stroke" data-item-order="1000000000" data-item-id="cu_dhbrotyq43re" data-item-class="Curve Stroke ColorFillGray ColorStrokeGray" data-item-index="none" data-renderer-id="0" transform="translate(219, 18)"><g id="cu_dhbrotyq43re-stroke" fill="none" stroke-linecap="round" stroke-linejoin="round" stroke-miterlimit="4" stroke="#888888" stroke-width="2" stroke-dasharray="5.0, 7.0"><g><path d="M 10 53L 13 53L 13.1 53C 24.642753 52.999998 34.000001 43.642749 34 32.099998L 34 32L 34 30.9C 33.999999 19.357249 43.357248 10.000001 54.899999 10.000002L 55 10L 58 10"></path></g></g></g><g id="g-root-cu_dhbrotyq43re-stroke" data-item-order="1000000000" data-item-id="cu_dhbrotyq43re" data-item-class="Curve Stroke ColorFillGray ColorStrokeGray" data-item-index="none" data-renderer-id="0" transform="translate(219, 18)"><g id="cu_dhbrotyq43re-stroke" fill="none" stroke-linecap="round" stroke-linejoin="round" stroke-miterlimit="4" stroke="#888888" stroke-width="2" stroke-dasharray="5.0, 7.0"><g><path d="M 10 53L 13 53L 13.1 53C 24.642753 52.999998 34.000001 43.642749 34 32.099998L 34 32L 34 30.9C 33.999999 19.357249 43.357248 10.000001 54.899999 10.000002L 55 10L 58 10"></path></g></g></g><g id="g-root-cu_dhbrotyq43re-stroke" data-item-order="1000000000" data-item-id="cu_dhbrotyq43re" data-item-class="Curve Stroke ColorFillGray ColorStrokeGray" data-item-index="none" data-renderer-id="0" transform="translate(219, 18)"><g id="cu_dhbrotyq43re-stroke" fill="none" stroke-linecap="round" stroke-linejoin="round" stroke-miterlimit="4" stroke="#888888" stroke-width="2" stroke-dasharray="5.0, 7.0"><g><path d="M 10 53L 13 53L 13.1 53C 24.642753 52.999998 34.000001 43.642749 34 32.099998L 34 32L 34 30.9C 33.999999 19.357249 43.357248 10.000001 54.899999 10.000002L 55 10L 58 10"></path></g></g></g><g id="g-root-tx_detalhes_dhbrotyq43ri-stroke" data-item-order="1000000000" data-item-id="tx_detalhes_dhbrotyq43ri" data-item-class="Label Stroke" data-item-index="none" data-renderer-id="0" transform="translate(75, 81)"></g><g id="g-root-tx_detalhes_dhbrotyq43ri-stroke" data-item-order="1000000000" data-item-id="tx_detalhes_dhbrotyq43ri" data-item-class="Label Stroke" data-item-index="none" data-renderer-id="0" transform="translate(75, 81)"></g><g id="g-root-cu_dhbrotyq43rj-stroke" data-item-order="1000000000" data-item-id="cu_dhbrotyq43rj" data-item-class="Curve Stroke ColorFillGray ColorStrokeGray" data-item-index="none" data-renderer-id="0" transform="translate(135, 177)"><g id="cu_dhbrotyq43rj-stroke" fill="none" stroke-linecap="round" stroke-linejoin="round" stroke-miterlimit="4" stroke="#888888" stroke-width="2" stroke-dasharray="5.0, 7.0"><g><path d="M 10 10L 10 28L 10 46"></path></g></g></g><g id="g-root-cu_dhbrotyq43rj-stroke" data-item-order="1000000000" data-item-id="cu_dhbrotyq43rj" data-item-class="Curve Stroke ColorFillGray ColorStrokeGray" data-item-index="none" data-renderer-id="0" transform="translate(135, 177)"><g id="cu_dhbrotyq43rj-stroke" fill="none" stroke-linecap="round" stroke-linejoin="round" stroke-miterlimit="4" stroke="#888888" stroke-width="2" stroke-dasharray="5.0, 7.0"><g><path d="M 10 10L 10 28L 10 46"></path></g></g></g><g id="g-root-cu_dhbrotyq43rj-stroke" data-item-order="1000000000" data-item-id="cu_dhbrotyq43rj" data-item-class="Curve Stroke ColorFillGray ColorStrokeGray" data-item-index="none" data-renderer-id="0" transform="translate(135, 177)"><g id="cu_dhbrotyq43rj-stroke" fill="none" stroke-linecap="round" stroke-linejoin="round" stroke-miterlimit="4" stroke="#888888" stroke-width="2" stroke-dasharray="5.0, 7.0"><g><path d="M 10 10L 10 28L 10 46"></path></g></g></g><g id="g-root-cu_dhbrotyq43rj-stroke" data-item-order="1000000000" data-item-id="cu_dhbrotyq43rj" data-item-class="Curve Stroke ColorFillGray ColorStrokeGray" data-item-index="none" data-renderer-id="0" transform="translate(135, 177)"><g id="cu_dhbrotyq43rj-stroke" fill="none" stroke-linecap="round" stroke-linejoin="round" stroke-miterlimit="4" stroke="#888888" stroke-width="2" stroke-dasharray="5.0, 7.0"><g><path d="M 10 10L 10 28L 10 46"></path></g></g></g><g id="g-root-cu_hx59t9yq42z3-stroke" data-item-order="1000000000" data-item-id="cu_hx59t9yq42z3" data-item-class="Curve Stroke ColorFillGray ColorStrokeGray" data-item-index="none" data-renderer-id="0" transform="translate(3, 18)"><g id="cu_hx59t9yq42z3-stroke" fill="none" stroke-linecap="round" stroke-linejoin="round" stroke-miterlimit="4" stroke="#888888" stroke-width="2" stroke-dasharray="5.0, 7.0"><g><path d="M 58 53L 55 53L 54.9 53C 43.357252 53.000001 34.000002 43.642752 34.000002 32.1L 34 32L 34 30.9C 33.999998 19.357248 24.64275 10 13.1 10L 13 10L 10 10"></path></g></g></g><g id="g-root-tx_detalhes_dhbrotyq43ri-stroke" data-item-order="1000000000" data-item-id="tx_detalhes_dhbrotyq43ri" data-item-class="Label Stroke" data-item-index="none" data-renderer-id="0" transform="translate(75, 81)"></g></g></g></svg>