<?xml version="1.0" encoding="utf-8" standalone="yes"?>
<!DOCTYPE svg PUBLIC "-//W3C//DTD SVG 1.1//EN" "http://www.w3.org/Graphics/SVG/1.1/DTD/svg11.dtd">
<svg width="290" height="175" viewBox="0 0 290 175" style="fill:none;stroke:none;fill-rule:evenodd;clip-rule:evenodd;stroke-linecap:round;stroke-linejoin:round;stroke-miterlimit:1.5;" version="1.1" xmlns="http://www.w3.org/2000/svg" xmlns:xlink="http://www.w3.org/1999/xlink"><style id="fontImports">@import url("https://fonts.googleapis.com/css2?family=Roboto:wght@400;700&amp;display=block");</style><g id="items" style="isolation: isolate"><g id="blend" style="mix-blend-mode:normal"><g id="g-root-ro_1hi7zl9x2gb9r-fill" data-item-order="999985744" data-item-id="ro_1hi7zl9x2gb9r" data-item-class="Shape Stroke Fill" data-item-index="none" data-renderer-id="0" transform="translate(3, 3)"><g id="ro_1hi7zl9x2gb9r-fill" stroke="none" fill="#e6efff"><g><path d="M 22 10L 262 10C 262 10 274 10 274 22L 274 52C 274 52 274 64 262 64L 22 64C 22 64 10 64 10 52L 10 22C 10 22 10 10 22 10"></path></g></g></g><g id="g-root-ro_1hi7zl9x2gb9r-fill" data-item-order="999985744" data-item-id="ro_1hi7zl9x2gb9r" data-item-class="Shape Stroke Fill" data-item-index="none" data-renderer-id="0" transform="translate(3, 3)"><g id="ro_1hi7zl9x2gb9r-fill" stroke="none" fill="#e6efff"><g><path d="M 22 10L 262 10C 262 10 274 10 274 22L 274 52C 274 52 274 64 262 64L 22 64C 22 64 10 64 10 52L 10 22C 10 22 10 10 22 10"></path></g></g></g><g id="g-root-ro_1hi7zl9x2gb9r-fill" data-item-order="999985744" data-item-id="ro_1hi7zl9x2gb9r" data-item-class="Shape Stroke Fill" data-item-index="none" data-renderer-id="0" transform="translate(3, 3)"><g id="ro_1hi7zl9x2gb9r-fill" stroke="none" fill="#e6efff"><g><path d="M 22 10L 262 10C 262 10 274 10 274 22L 274 52C 274 52 274 64 262 64L 22 64C 22 64 10 64 10 52L 10 22C 10 22 10 10 22 10"></path></g></g></g><g id="g-root-pers_1ly1hppx2gb9c-fill" data-item-order="1000000000" data-item-id="pers_1ly1hppx2gb9c" data-item-class="Icon Stroke" data-item-index="none" data-renderer-id="0" transform="translate(63, 15)"></g><g id="g-root-pers_1ly1hppx2gb9c-fill" data-item-order="1000000000" data-item-id="pers_1ly1hppx2gb9c" data-item-class="Icon Stroke" data-item-index="none" data-renderer-id="0" transform="translate(63, 15)"></g><g id="g-root-tx_informae_1ly1hppx2gb9d-fill" data-item-order="1000000000" data-item-id="tx_informae_1ly1hppx2gb9d" data-item-class="Label Stroke" data-item-index="none" data-renderer-id="0" transform="translate(99, 18)"><g id="tx_informae_1ly1hppx2gb9d-fill" stroke="none" fill="#4682e3"><g><text style="font: 20px Roboto, sans-serif; white-space: pre;" font-weight="20px" font-size="Roboto," font-family="sans-serif"><tspan x="13.24" y="33.64" dominant-baseline="ideographic">Preferência</tspan></text></g></g></g><g id="g-root-tx_informae_1ly1hppx2gb9d-fill" data-item-order="1000000000" data-item-id="tx_informae_1ly1hppx2gb9d" data-item-class="Label Stroke" data-item-index="none" data-renderer-id="0" transform="translate(99, 18)"><g id="tx_informae_1ly1hppx2gb9d-fill" stroke="none" fill="#4682e3"><g><text style="font: 20px Roboto, sans-serif; white-space: pre;" font-weight="20px" font-size="Roboto," font-family="sans-serif"><tspan x="13.24" y="33.64" dominant-baseline="ideographic">Preferência</tspan></text></g></g></g><g id="g-root-tx_informae_1ly1hppx2gb9d-fill" data-item-order="1000000000" data-item-id="tx_informae_1ly1hppx2gb9d" data-item-class="Label Stroke" data-item-index="none" data-renderer-id="0" transform="translate(99, 18)"><g id="tx_informae_1ly1hppx2gb9d-fill" stroke="none" fill="#4682e3"><g><text style="font: 20px Roboto, sans-serif; white-space: pre;" font-weight="20px" font-size="Roboto," font-family="sans-serif"><tspan x="13.24" y="33.64" dominant-baseline="ideographic">Preferência</tspan></text></g></g></g><g id="g-root-cu_1ly1hppx2gb9e-fill" data-item-order="1000000000" data-item-id="cu_1ly1hppx2gb9e" data-item-class="Curve Stroke ColorFillGray ColorStrokeGray" data-item-index="none" data-renderer-id="0" transform="translate(27, 57.00006103515625)"></g><g id="g-root-cu_1ly1hppx2gb9e-fill" data-item-order="1000000000" data-item-id="cu_1ly1hppx2gb9e" data-item-class="Curve Stroke ColorFillGray ColorStrokeGray" data-item-index="none" data-renderer-id="0" transform="translate(27, 57.00006103515625)"></g><g id="g-root-cu_1ly1hppx2gb9e-fill" data-item-order="1000000000" data-item-id="cu_1ly1hppx2gb9e" data-item-class="Curve Stroke ColorFillGray ColorStrokeGray" data-item-index="none" data-renderer-id="0" transform="translate(27, 57.00006103515625)"></g><g id="g-root-cu_1ly1hppx2gb9e-fill" data-item-order="1000000000" data-item-id="cu_1ly1hppx2gb9e" data-item-class="Curve Stroke ColorFillGray ColorStrokeGray" data-item-index="none" data-renderer-id="0" transform="translate(27, 57.00006103515625)"></g><g id="g-root-cu_1ly1hppx2gb9e-fill" data-item-order="1000000000" data-item-id="cu_1ly1hppx2gb9e" data-item-class="Curve Stroke ColorFillGray ColorStrokeGray" data-item-index="none" data-renderer-id="0" transform="translate(27, 57.00006103515625)"></g><g id="g-root-tx_nome_1ly1hppx2gb9j-fill" data-item-order="1000000000" data-item-id="tx_nome_1ly1hppx2gb9j" data-item-class="Label Stroke" data-item-index="none" data-renderer-id="0" transform="translate(63, 69.00006103515625)"><g id="tx_nome_1ly1hppx2gb9j-fill" stroke="none" fill="#484848"><g><text style="font: 20px Roboto, sans-serif; white-space: pre;" font-weight="20px" font-size="Roboto," font-family="sans-serif"><tspan x="13.58" y="33.64" dominant-baseline="ideographic">Dia</tspan></text></g></g></g><g id="g-root-cu_1ly1hppx2gb9g-fill" data-item-order="1000000000" data-item-id="cu_1ly1hppx2gb9g" data-item-class="Curve Stroke ColorFillGray ColorStrokeGray" data-item-index="none" data-renderer-id="0" transform="translate(27, 87.00006103515625)"></g><g id="g-root-tx_nome_1ly1hppx2gb9m-fill" data-item-order="1000000000" data-item-id="tx_nome_1ly1hppx2gb9m" data-item-class="Label Stroke" data-item-index="none" data-renderer-id="0" transform="translate(63, 99.00006103515625)"><g id="tx_nome_1ly1hppx2gb9m-fill" stroke="none" fill="#484848"><g><text style="font: 20px Roboto, sans-serif; white-space: pre;" font-weight="20px" font-size="Roboto," font-family="sans-serif"><tspan x="13.02" y="33.64" dominant-baseline="ideographic">Horário</tspan></text></g></g></g><g id="g-root-cu_1ly1hppx2gb9n-fill" data-item-order="1000000000" data-item-id="cu_1ly1hppx2gb9n" data-item-class="Curve Stroke ColorFillGray ColorStrokeGray" data-item-index="none" data-renderer-id="0" transform="translate(27, 117.00006103515625)"></g><g id="g-root-tx_nome_1ly1hppx2gb9o-fill" data-item-order="1000000000" data-item-id="tx_nome_1ly1hppx2gb9o" data-item-class="Label Stroke" data-item-index="none" data-renderer-id="0" transform="translate(59.4000244140625, 128.35992431640625)"><g id="tx_nome_1ly1hppx2gb9o-fill" stroke="none" fill="#484848"><g><text style="font: 20px Roboto, sans-serif; white-space: pre;" font-weight="20px" font-size="Roboto," font-family="sans-serif"><tspan x="15.81" y="33.64" dominant-baseline="ideographic">Local</tspan></text></g></g></g><g id="g-root-pers_1ly1hppx2gb9c-fill" data-item-order="1000000000" data-item-id="pers_1ly1hppx2gb9c" data-item-class="Icon Stroke" data-item-index="none" data-renderer-id="0" transform="translate(63, 15)"></g><g id="g-root-ro_1hi7zl9x2gb9r-stroke" data-item-order="999985744" data-item-id="ro_1hi7zl9x2gb9r" data-item-class="Shape Stroke Fill" data-item-index="none" data-renderer-id="0" transform="translate(3, 3)"><g id="ro_1hi7zl9x2gb9r-stroke" fill="none" stroke-linecap="round" stroke-linejoin="round" stroke-miterlimit="4" stroke="#4682e3" stroke-width="2"><g><path d="M 22 10L 262 10C 262 10 274 10 274 22L 274 52C 274 52 274 64 262 64L 22 64C 22 64 10 64 10 52L 10 22C 10 22 10 10 22 10"></path></g></g></g><g id="g-root-ro_1hi7zl9x2gb9r-stroke" data-item-order="999985744" data-item-id="ro_1hi7zl9x2gb9r" data-item-class="Shape Stroke Fill" data-item-index="none" data-renderer-id="0" transform="translate(3, 3)"><g id="ro_1hi7zl9x2gb9r-stroke" fill="none" stroke-linecap="round" stroke-linejoin="round" stroke-miterlimit="4" stroke="#4682e3" stroke-width="2"><g><path d="M 22 10L 262 10C 262 10 274 10 274 22L 274 52C 274 52 274 64 262 64L 22 64C 22 64 10 64 10 52L 10 22C 10 22 10 10 22 10"></path></g></g></g><g id="g-root-ro_1hi7zl9x2gb9r-stroke" data-item-order="999985744" data-item-id="ro_1hi7zl9x2gb9r" data-item-class="Shape Stroke Fill" data-item-index="none" data-renderer-id="0" transform="translate(3, 3)"><g id="ro_1hi7zl9x2gb9r-stroke" fill="none" stroke-linecap="round" stroke-linejoin="round" stroke-miterlimit="4" stroke="#4682e3" stroke-width="2"><g><path d="M 22 10L 262 10C 262 10 274 10 274 22L 274 52C 274 52 274 64 262 64L 22 64C 22 64 10 64 10 52L 10 22C 10 22 10 10 22 10"></path></g></g></g><g id="g-root-pers_1ly1hppx2gb9c-stroke" data-item-order="1000000000" data-item-id="pers_1ly1hppx2gb9c" data-item-class="Icon Stroke" data-item-index="none" data-renderer-id="0" transform="translate(63, 15)"><g id="pers_1ly1hppx2gb9c-stroke" fill="none" stroke-linecap="round" stroke-linejoin="round" stroke-miterlimit="4" stroke="#4682e3" stroke-width="2"><g><path d="M 25.771429 38.778572L 25.771429 38.778572C 25.274982 38.970135 24.725018 38.970135 24.228571 38.778572L 24.228571 38.778572C 16.294128 35.667427 11.073779 28.015448 11.071428 19.492857L 11.071428 13.214286C 11.071428 12.030818 12.030818 11.071428 13.214286 11.071428L 36.785713 11.071428C 37.969181 11.071428 38.92857 12.030818 38.92857 13.214286L 38.92857 19.471428C 38.93504 28.001842 33.713154 35.664574 25.771427 38.778568ZM 19.642857 21.785713C 19.642857 24.744383 22.041332 27.142857 25 27.142857C 27.958668 27.142857 30.357141 24.744383 30.357141 21.785713C 30.357141 18.827045 27.958668 16.428572 25 16.428572C 22.041332 16.428572 19.642857 18.827045 19.642857 21.785713M 16.964285 33.978569C 18.998211 31.672316 21.924994 30.35112 25 30.35112C 28.075006 30.35112 31.001787 31.672316 33.035713 33.978573"></path></g></g></g><g id="g-root-pers_1ly1hppx2gb9c-stroke" data-item-order="1000000000" data-item-id="pers_1ly1hppx2gb9c" data-item-class="Icon Stroke" data-item-index="none" data-renderer-id="0" transform="translate(63, 15)"><g id="pers_1ly1hppx2gb9c-stroke" fill="none" stroke-linecap="round" stroke-linejoin="round" stroke-miterlimit="4" stroke="#4682e3" stroke-width="2"><g><path d="M 25.771429 38.778572L 25.771429 38.778572C 25.274982 38.970135 24.725018 38.970135 24.228571 38.778572L 24.228571 38.778572C 16.294128 35.667427 11.073779 28.015448 11.071428 19.492857L 11.071428 13.214286C 11.071428 12.030818 12.030818 11.071428 13.214286 11.071428L 36.785713 11.071428C 37.969181 11.071428 38.92857 12.030818 38.92857 13.214286L 38.92857 19.471428C 38.93504 28.001842 33.713154 35.664574 25.771427 38.778568ZM 19.642857 21.785713C 19.642857 24.744383 22.041332 27.142857 25 27.142857C 27.958668 27.142857 30.357141 24.744383 30.357141 21.785713C 30.357141 18.827045 27.958668 16.428572 25 16.428572C 22.041332 16.428572 19.642857 18.827045 19.642857 21.785713M 16.964285 33.978569C 18.998211 31.672316 21.924994 30.35112 25 30.35112C 28.075006 30.35112 31.001787 31.672316 33.035713 33.978573"></path></g></g></g><g id="g-root-tx_informae_1ly1hppx2gb9d-stroke" data-item-order="1000000000" data-item-id="tx_informae_1ly1hppx2gb9d" data-item-class="Label Stroke" data-item-index="none" data-renderer-id="0" transform="translate(99, 18)"></g><g id="g-root-tx_informae_1ly1hppx2gb9d-stroke" data-item-order="1000000000" data-item-id="tx_informae_1ly1hppx2gb9d" data-item-class="Label Stroke" data-item-index="none" data-renderer-id="0" transform="translate(99, 18)"></g><g id="g-root-tx_informae_1ly1hppx2gb9d-stroke" data-item-order="1000000000" data-item-id="tx_informae_1ly1hppx2gb9d" data-item-class="Label Stroke" data-item-index="none" data-renderer-id="0" transform="translate(99, 18)"></g><g id="g-root-cu_1ly1hppx2gb9e-stroke" data-item-order="1000000000" data-item-id="cu_1ly1hppx2gb9e" data-item-class="Curve Stroke ColorFillGray ColorStrokeGray" data-item-index="none" data-renderer-id="0" transform="translate(27, 57.00006103515625)"><g id="cu_1ly1hppx2gb9e-stroke" fill="none" stroke-linecap="round" stroke-linejoin="round" stroke-miterlimit="4" stroke="#888888" stroke-width="2" stroke-dasharray="5.0, 7.0"><g><path d="M 10 10L 10 13L 10 22C 10 28.627416 15.372583 33.999999 22 33.999999L 22.1 34L 42.4 34"></path></g></g></g><g id="g-root-cu_1ly1hppx2gb9e-stroke" data-item-order="1000000000" data-item-id="cu_1ly1hppx2gb9e" data-item-class="Curve Stroke ColorFillGray ColorStrokeGray" data-item-index="none" data-renderer-id="0" transform="translate(27, 57.00006103515625)"><g id="cu_1ly1hppx2gb9e-stroke" fill="none" stroke-linecap="round" stroke-linejoin="round" stroke-miterlimit="4" stroke="#888888" stroke-width="2" stroke-dasharray="5.0, 7.0"><g><path d="M 10 10L 10 13L 10 22C 10 28.627416 15.372583 33.999999 22 33.999999L 22.1 34L 42.4 34"></path></g></g></g><g id="g-root-cu_1ly1hppx2gb9e-stroke" data-item-order="1000000000" data-item-id="cu_1ly1hppx2gb9e" data-item-class="Curve Stroke ColorFillGray ColorStrokeGray" data-item-index="none" data-renderer-id="0" transform="translate(27, 57.00006103515625)"><g id="cu_1ly1hppx2gb9e-stroke" fill="none" stroke-linecap="round" stroke-linejoin="round" stroke-miterlimit="4" stroke="#888888" stroke-width="2" stroke-dasharray="5.0, 7.0"><g><path d="M 10 10L 10 13L 10 22C 10 28.627416 15.372583 33.999999 22 33.999999L 22.1 34L 42.4 34"></path></g></g></g><g id="g-root-cu_1ly1hppx2gb9e-stroke" data-item-order="1000000000" data-item-id="cu_1ly1hppx2gb9e" data-item-class="Curve Stroke ColorFillGray ColorStrokeGray" data-item-index="none" data-renderer-id="0" transform="translate(27, 57.00006103515625)"><g id="cu_1ly1hppx2gb9e-stroke" fill="none" stroke-linecap="round" stroke-linejoin="round" stroke-miterlimit="4" stroke="#888888" stroke-width="2" stroke-dasharray="5.0, 7.0"><g><path d="M 10 10L 10 13L 10 22C 10 28.627416 15.372583 33.999999 22 33.999999L 22.1 34L 42.4 34"></path></g></g></g><g id="g-root-cu_1ly1hppx2gb9e-stroke" data-item-order="1000000000" data-item-id="cu_1ly1hppx2gb9e" data-item-class="Curve Stroke ColorFillGray ColorStrokeGray" data-item-index="none" data-renderer-id="0" transform="translate(27, 57.00006103515625)"><g id="cu_1ly1hppx2gb9e-stroke" fill="none" stroke-linecap="round" stroke-linejoin="round" stroke-miterlimit="4" stroke="#888888" stroke-width="2" stroke-dasharray="5.0, 7.0"><g><path d="M 10 10L 10 13L 10 22C 10 28.627416 15.372583 33.999999 22 33.999999L 22.1 34L 42.4 34"></path></g></g></g><g id="g-root-tx_nome_1ly1hppx2gb9j-stroke" data-item-order="1000000000" data-item-id="tx_nome_1ly1hppx2gb9j" data-item-class="Label Stroke" data-item-index="none" data-renderer-id="0" transform="translate(63, 69.00006103515625)"></g><g id="g-root-cu_1ly1hppx2gb9g-stroke" data-item-order="1000000000" data-item-id="cu_1ly1hppx2gb9g" data-item-class="Curve Stroke ColorFillGray ColorStrokeGray" data-item-index="none" data-renderer-id="0" transform="translate(27, 87.00006103515625)"><g id="cu_1ly1hppx2gb9g-stroke" fill="none" stroke-linecap="round" stroke-linejoin="round" stroke-miterlimit="4" stroke="#888888" stroke-width="2" stroke-dasharray="5.0, 7.0"><g><path d="M 10 10L 10 13L 10 22C 10 28.627416 15.372583 33.999999 22 33.999999L 22.1 34L 42.4 34"></path></g></g></g><g id="g-root-tx_nome_1ly1hppx2gb9m-stroke" data-item-order="1000000000" data-item-id="tx_nome_1ly1hppx2gb9m" data-item-class="Label Stroke" data-item-index="none" data-renderer-id="0" transform="translate(63, 99.00006103515625)"></g><g id="g-root-cu_1ly1hppx2gb9n-stroke" data-item-order="1000000000" data-item-id="cu_1ly1hppx2gb9n" data-item-class="Curve Stroke ColorFillGray ColorStrokeGray" data-item-index="none" data-renderer-id="0" transform="translate(27, 117.00006103515625)"><g id="cu_1ly1hppx2gb9n-stroke" fill="none" stroke-linecap="round" stroke-linejoin="round" stroke-miterlimit="4" stroke="#888888" stroke-width="2" stroke-dasharray="5.0, 7.0"><g><path d="M 10 10L 10 13L 10 22C 10 28.627416 15.372583 33.999999 22 33.999999L 22.1 34L 42.4 34"></path></g></g></g><g id="g-root-tx_nome_1ly1hppx2gb9o-stroke" data-item-order="1000000000" data-item-id="tx_nome_1ly1hppx2gb9o" data-item-class="Label Stroke" data-item-index="none" data-renderer-id="0" transform="translate(59.4000244140625, 128.35992431640625)"></g><g id="g-root-pers_1ly1hppx2gb9c-stroke" data-item-order="1000000000" data-item-id="pers_1ly1hppx2gb9c" data-item-class="Icon Stroke" data-item-index="none" data-renderer-id="0" transform="translate(63, 15)"><g id="pers_1ly1hppx2gb9c-stroke" fill="none" stroke-linecap="round" stroke-linejoin="round" stroke-miterlimit="4" stroke="#4682e3" stroke-width="2"><g><path d="M 25.771429 38.778572L 25.771429 38.778572C 25.274982 38.970135 24.725018 38.970135 24.228571 38.778572L 24.228571 38.778572C 16.294128 35.667427 11.073779 28.015448 11.071428 19.492857L 11.071428 13.214286C 11.071428 12.030818 12.030818 11.071428 13.214286 11.071428L 36.785713 11.071428C 37.969181 11.071428 38.92857 12.030818 38.92857 13.214286L 38.92857 19.471428C 38.93504 28.001842 33.713154 35.664574 25.771427 38.778568ZM 19.642857 21.785713C 19.642857 24.744383 22.041332 27.142857 25 27.142857C 27.958668 27.142857 30.357141 24.744383 30.357141 21.785713C 30.357141 18.827045 27.958668 16.428572 25 16.428572C 22.041332 16.428572 19.642857 18.827045 19.642857 21.785713M 16.964285 33.978569C 18.998211 31.672316 21.924994 30.35112 25 30.35112C 28.075006 30.35112 31.001787 31.672316 33.035713 33.978573"></path></g></g></g></g></g></svg>